<svg xmlns="http://www.w3.org/2000/svg" version="1.1" xmlns:xlink="http://www.w3.org/1999/xlink" xmlns:svgjs="http://svgjs.dev/svgjs" viewBox="0 0 2400 800" opacity="0.29"><defs><linearGradient x1="50%" y1="0%" x2="50%" y2="100%" id="sssurf-grad"><stop stop-color="hsl(265, 55%, 30%)" stop-opacity="1" offset="0%"></stop><stop stop-color="hsl(265, 55%, 60%)" stop-opacity="1" offset="100%"></stop></linearGradient></defs><g fill="url(#sssurf-grad)" transform="matrix(1,0,0,1,8.247314453125,-454.1485900878906)"><path d="M-10,10C47.63888888888889,21.458333333333332,153.47222222222223,75.20833333333333,266.6666666666667,65C379.86111111111114,54.79166666666667,422.2222222222223,-30.25,533.3333333333334,-39C644.4444444444445,-47.75,688.8888888888889,23.416666666666668,800,23C911.1111111111111,22.583333333333332,955.5555555555557,-49.541666666666664,1066.6666666666667,-41C1177.7777777777778,-32.458333333333336,1222.2222222222224,59.625,1333.3333333333335,64C1444.4444444444446,68.375,1488.888888888889,-13.958333333333334,1600,-20C1711.111111111111,-26.041666666666664,1755.5555555555557,30.625,1866.6666666666667,35C1977.7777777777778,39.375,2022.2222222222224,-1.2916666666666665,2133.3333333333335,1C2244.4444444444443,3.2916666666666665,2292.3611111111113,-37.125,2400,46C2507.6388888888887,129.125,3254.1666666666665,222.08333333333331,2650,400C2045.8333333333335,577.9166666666667,156.25,795.8333333333334,-500,900" transform="matrix(1,0,0,1,0,150)" opacity="0.05"></path><path d="M-10,10C47.63888888888889,21.458333333333332,153.47222222222223,75.20833333333333,266.6666666666667,65C379.86111111111114,54.79166666666667,422.2222222222223,-30.25,533.3333333333334,-39C644.4444444444445,-47.75,688.8888888888889,23.416666666666668,800,23C911.1111111111111,22.583333333333332,955.5555555555557,-49.541666666666664,1066.6666666666667,-41C1177.7777777777778,-32.458333333333336,1222.2222222222224,59.625,1333.3333333333335,64C1444.4444444444446,68.375,1488.888888888889,-13.958333333333334,1600,-20C1711.111111111111,-26.041666666666664,1755.5555555555557,30.625,1866.6666666666667,35C1977.7777777777778,39.375,2022.2222222222224,-1.2916666666666665,2133.3333333333335,1C2244.4444444444443,3.2916666666666665,2292.3611111111113,-37.125,2400,46C2507.6388888888887,129.125,3254.1666666666665,222.08333333333331,2650,400C2045.8333333333335,577.9166666666667,156.25,795.8333333333334,-500,900" transform="matrix(1,0,0,1,0,300)" opacity="0.16"></path><path d="M-10,10C47.63888888888889,21.458333333333332,153.47222222222223,75.20833333333333,266.6666666666667,65C379.86111111111114,54.79166666666667,422.2222222222223,-30.25,533.3333333333334,-39C644.4444444444445,-47.75,688.8888888888889,23.416666666666668,800,23C911.1111111111111,22.583333333333332,955.5555555555557,-49.541666666666664,1066.6666666666667,-41C1177.7777777777778,-32.458333333333336,1222.2222222222224,59.625,1333.3333333333335,64C1444.4444444444446,68.375,1488.888888888889,-13.958333333333334,1600,-20C1711.111111111111,-26.041666666666664,1755.5555555555557,30.625,1866.6666666666667,35C1977.7777777777778,39.375,2022.2222222222224,-1.2916666666666665,2133.3333333333335,1C2244.4444444444443,3.2916666666666665,2292.3611111111113,-37.125,2400,46C2507.6388888888887,129.125,3254.1666666666665,222.08333333333331,2650,400C2045.8333333333335,577.9166666666667,156.25,795.8333333333334,-500,900" transform="matrix(1,0,0,1,0,450)" opacity="0.26"></path><path d="M-10,10C47.63888888888889,21.458333333333332,153.47222222222223,75.20833333333333,266.6666666666667,65C379.86111111111114,54.79166666666667,422.2222222222223,-30.25,533.3333333333334,-39C644.4444444444445,-47.75,688.8888888888889,23.416666666666668,800,23C911.1111111111111,22.583333333333332,955.5555555555557,-49.541666666666664,1066.6666666666667,-41C1177.7777777777778,-32.458333333333336,1222.2222222222224,59.625,1333.3333333333335,64C1444.4444444444446,68.375,1488.888888888889,-13.958333333333334,1600,-20C1711.111111111111,-26.041666666666664,1755.5555555555557,30.625,1866.6666666666667,35C1977.7777777777778,39.375,2022.2222222222224,-1.2916666666666665,2133.3333333333335,1C2244.4444444444443,3.2916666666666665,2292.3611111111113,-37.125,2400,46C2507.6388888888887,129.125,3254.1666666666665,222.08333333333331,2650,400C2045.8333333333335,577.9166666666667,156.25,795.8333333333334,-500,900" transform="matrix(1,0,0,1,0,600)" opacity="0.37"></path><path d="M-10,10C47.63888888888889,21.458333333333332,153.47222222222223,75.20833333333333,266.6666666666667,65C379.86111111111114,54.79166666666667,422.2222222222223,-30.25,533.3333333333334,-39C644.4444444444445,-47.75,688.8888888888889,23.416666666666668,800,23C911.1111111111111,22.583333333333332,955.5555555555557,-49.541666666666664,1066.6666666666667,-41C1177.7777777777778,-32.458333333333336,1222.2222222222224,59.625,1333.3333333333335,64C1444.4444444444446,68.375,1488.888888888889,-13.958333333333334,1600,-20C1711.111111111111,-26.041666666666664,1755.5555555555557,30.625,1866.6666666666667,35C1977.7777777777778,39.375,2022.2222222222224,-1.2916666666666665,2133.3333333333335,1C2244.4444444444443,3.2916666666666665,2292.3611111111113,-37.125,2400,46C2507.6388888888887,129.125,3254.1666666666665,222.08333333333331,2650,400C2045.8333333333335,577.9166666666667,156.25,795.8333333333334,-500,900" transform="matrix(1,0,0,1,0,750)" opacity="0.47"></path><path d="M-10,10C47.63888888888889,21.458333333333332,153.47222222222223,75.20833333333333,266.6666666666667,65C379.86111111111114,54.79166666666667,422.2222222222223,-30.25,533.3333333333334,-39C644.4444444444445,-47.75,688.8888888888889,23.416666666666668,800,23C911.1111111111111,22.583333333333332,955.5555555555557,-49.541666666666664,1066.6666666666667,-41C1177.7777777777778,-32.458333333333336,1222.2222222222224,59.625,1333.3333333333335,64C1444.4444444444446,68.375,1488.888888888889,-13.958333333333334,1600,-20C1711.111111111111,-26.041666666666664,1755.5555555555557,30.625,1866.6666666666667,35C1977.7777777777778,39.375,2022.2222222222224,-1.2916666666666665,2133.3333333333335,1C2244.4444444444443,3.2916666666666665,2292.3611111111113,-37.125,2400,46C2507.6388888888887,129.125,3254.1666666666665,222.08333333333331,2650,400C2045.8333333333335,577.9166666666667,156.25,795.8333333333334,-500,900" transform="matrix(1,0,0,1,0,900)" opacity="0.58"></path><path d="M-10,10C47.63888888888889,21.458333333333332,153.47222222222223,75.20833333333333,266.6666666666667,65C379.86111111111114,54.79166666666667,422.2222222222223,-30.25,533.3333333333334,-39C644.4444444444445,-47.75,688.8888888888889,23.416666666666668,800,23C911.1111111111111,22.583333333333332,955.5555555555557,-49.541666666666664,1066.6666666666667,-41C1177.7777777777778,-32.458333333333336,1222.2222222222224,59.625,1333.3333333333335,64C1444.4444444444446,68.375,1488.888888888889,-13.958333333333334,1600,-20C1711.111111111111,-26.041666666666664,1755.5555555555557,30.625,1866.6666666666667,35C1977.7777777777778,39.375,2022.2222222222224,-1.2916666666666665,2133.3333333333335,1C2244.4444444444443,3.2916666666666665,2292.3611111111113,-37.125,2400,46C2507.6388888888887,129.125,3254.1666666666665,222.08333333333331,2650,400C2045.8333333333335,577.9166666666667,156.25,795.8333333333334,-500,900" transform="matrix(1,0,0,1,0,1050)" opacity="0.68"></path><path d="M-10,10C47.63888888888889,21.458333333333332,153.47222222222223,75.20833333333333,266.6666666666667,65C379.86111111111114,54.79166666666667,422.2222222222223,-30.25,533.3333333333334,-39C644.4444444444445,-47.75,688.8888888888889,23.416666666666668,800,23C911.1111111111111,22.583333333333332,955.5555555555557,-49.541666666666664,1066.6666666666667,-41C1177.7777777777778,-32.458333333333336,1222.2222222222224,59.625,1333.3333333333335,64C1444.4444444444446,68.375,1488.888888888889,-13.958333333333334,1600,-20C1711.111111111111,-26.041666666666664,1755.5555555555557,30.625,1866.6666666666667,35C1977.7777777777778,39.375,2022.2222222222224,-1.2916666666666665,2133.3333333333335,1C2244.4444444444443,3.2916666666666665,2292.3611111111113,-37.125,2400,46C2507.6388888888887,129.125,3254.1666666666665,222.08333333333331,2650,400C2045.8333333333335,577.9166666666667,156.25,795.8333333333334,-500,900" transform="matrix(1,0,0,1,0,1200)" opacity="0.79"></path><path d="M-10,10C47.63888888888889,21.458333333333332,153.47222222222223,75.20833333333333,266.6666666666667,65C379.86111111111114,54.79166666666667,422.2222222222223,-30.25,533.3333333333334,-39C644.4444444444445,-47.75,688.8888888888889,23.416666666666668,800,23C911.1111111111111,22.583333333333332,955.5555555555557,-49.541666666666664,1066.6666666666667,-41C1177.7777777777778,-32.458333333333336,1222.2222222222224,59.625,1333.3333333333335,64C1444.4444444444446,68.375,1488.888888888889,-13.958333333333334,1600,-20C1711.111111111111,-26.041666666666664,1755.5555555555557,30.625,1866.6666666666667,35C1977.7777777777778,39.375,2022.2222222222224,-1.2916666666666665,2133.3333333333335,1C2244.4444444444443,3.2916666666666665,2292.3611111111113,-37.125,2400,46C2507.6388888888887,129.125,3254.1666666666665,222.08333333333331,2650,400C2045.8333333333335,577.9166666666667,156.25,795.8333333333334,-500,900" transform="matrix(1,0,0,1,0,1350)" opacity="0.89"></path><path d="M-10,10C47.63888888888889,21.458333333333332,153.47222222222223,75.20833333333333,266.6666666666667,65C379.86111111111114,54.79166666666667,422.2222222222223,-30.25,533.3333333333334,-39C644.4444444444445,-47.75,688.8888888888889,23.416666666666668,800,23C911.1111111111111,22.583333333333332,955.5555555555557,-49.541666666666664,1066.6666666666667,-41C1177.7777777777778,-32.458333333333336,1222.2222222222224,59.625,1333.3333333333335,64C1444.4444444444446,68.375,1488.888888888889,-13.958333333333334,1600,-20C1711.111111111111,-26.041666666666664,1755.5555555555557,30.625,1866.6666666666667,35C1977.7777777777778,39.375,2022.2222222222224,-1.2916666666666665,2133.3333333333335,1C2244.4444444444443,3.2916666666666665,2292.3611111111113,-37.125,2400,46C2507.6388888888887,129.125,3254.1666666666665,222.08333333333331,2650,400C2045.8333333333335,577.9166666666667,156.25,795.8333333333334,-500,900" transform="matrix(1,0,0,1,0,1500)" opacity="1.00"></path></g></svg>