<svg xmlns="http://www.w3.org/2000/svg" version="1.1" xmlns:xlink="http://www.w3.org/1999/xlink" xmlns:svgjs="http://svgjs.dev/svgjs" viewBox="0 0 800 800" width="800" height="800"><g stroke-width="0.5" stroke="hsla(0, 0%, 100%, 1.00)" fill="none"><line x1="0" y1="0" x2="57.142857142857146" y2="57.142857142857146"></line><line x1="57.142857142857146" y1="0" x2="0" y2="57.142857142857146"></line><line x1="57.142857142857146" y1="0" x2="114.28571428571429" y2="57.142857142857146"></line><line x1="114.28571428571429" y1="0" x2="57.142857142857146" y2="57.142857142857146"></line><line x1="114.28571428571429" y1="0" x2="171.42857142857144" y2="57.142857142857146"></line><line x1="171.42857142857144" y1="0" x2="114.28571428571429" y2="57.142857142857146"></line><line x1="171.42857142857144" y1="0" x2="228.57142857142858" y2="57.142857142857146"></line><line x1="228.57142857142858" y1="0" x2="171.42857142857144" y2="57.142857142857146"></line><line x1="228.57142857142858" y1="0" x2="285.7142857142857" y2="57.142857142857146"></line><line x1="285.7142857142857" y1="0" x2="228.57142857142858" y2="57.142857142857146"></line><line x1="285.7142857142857" y1="0" x2="342.8571428571429" y2="57.142857142857146"></line><line x1="342.8571428571429" y1="0" x2="285.7142857142857" y2="57.142857142857146"></line><line x1="342.8571428571429" y1="0" x2="400.00000000000006" y2="57.142857142857146"></line><line x1="400.00000000000006" y1="0" x2="342.8571428571429" y2="57.142857142857146"></line><line x1="400.00000000000006" y1="0" x2="457.1428571428572" y2="57.142857142857146"></line><line x1="457.1428571428572" y1="0" x2="400.00000000000006" y2="57.142857142857146"></line><line x1="457.1428571428572" y1="0" x2="514.2857142857143" y2="57.142857142857146"></line><line x1="514.2857142857143" y1="0" x2="457.1428571428572" y2="57.142857142857146"></line><line x1="514.2857142857143" y1="0" x2="571.4285714285714" y2="57.142857142857146"></line><line x1="571.4285714285714" y1="0" x2="514.2857142857143" y2="57.142857142857146"></line><line x1="571.4285714285714" y1="0" x2="628.5714285714286" y2="57.142857142857146"></line><line x1="628.5714285714286" y1="0" x2="571.4285714285714" y2="57.142857142857146"></line><line x1="628.5714285714286" y1="0" x2="685.7142857142857" y2="57.142857142857146"></line><line x1="685.7142857142857" y1="0" x2="628.5714285714286" y2="57.142857142857146"></line><line x1="685.7142857142857" y1="0" x2="742.8571428571428" y2="57.142857142857146"></line><line x1="742.8571428571428" y1="0" x2="685.7142857142857" y2="57.142857142857146"></line><line x1="742.8571428571428" y1="0" x2="799.9999999999999" y2="57.142857142857146"></line><line x1="799.9999999999999" y1="0" x2="742.8571428571428" y2="57.142857142857146"></line><line x1="799.9999999999999" y1="0" x2="857.142857142857" y2="57.142857142857146"></line><line x1="857.142857142857" y1="0" x2="799.9999999999999" y2="57.142857142857146"></line><line x1="0" y1="57.142857142857146" x2="57.142857142857146" y2="114.28571428571429"></line><line x1="57.142857142857146" y1="57.142857142857146" x2="0" y2="114.28571428571429"></line><line x1="57.142857142857146" y1="57.142857142857146" x2="114.28571428571429" y2="114.28571428571429"></line><line x1="114.28571428571429" y1="57.142857142857146" x2="57.142857142857146" y2="114.28571428571429"></line><line x1="114.28571428571429" y1="57.142857142857146" x2="171.42857142857144" y2="114.28571428571429"></line><line x1="171.42857142857144" y1="57.142857142857146" x2="114.28571428571429" y2="114.28571428571429"></line><line x1="171.42857142857144" y1="57.142857142857146" x2="228.57142857142858" y2="114.28571428571429"></line><line x1="228.57142857142858" y1="57.142857142857146" x2="171.42857142857144" y2="114.28571428571429"></line><line x1="228.57142857142858" y1="57.142857142857146" x2="285.7142857142857" y2="114.28571428571429"></line><line x1="285.7142857142857" y1="57.142857142857146" x2="228.57142857142858" y2="114.28571428571429"></line><line x1="285.7142857142857" y1="57.142857142857146" x2="342.8571428571429" y2="114.28571428571429"></line><line x1="342.8571428571429" y1="57.142857142857146" x2="285.7142857142857" y2="114.28571428571429"></line><line x1="342.8571428571429" y1="57.142857142857146" x2="400.00000000000006" y2="114.28571428571429"></line><line x1="400.00000000000006" y1="57.142857142857146" x2="342.8571428571429" y2="114.28571428571429"></line><line x1="400.00000000000006" y1="57.142857142857146" x2="457.1428571428572" y2="114.28571428571429"></line><line x1="457.1428571428572" y1="57.142857142857146" x2="400.00000000000006" y2="114.28571428571429"></line><line x1="457.1428571428572" y1="57.142857142857146" x2="514.2857142857143" y2="114.28571428571429"></line><line x1="514.2857142857143" y1="57.142857142857146" x2="457.1428571428572" y2="114.28571428571429"></line><line x1="514.2857142857143" y1="57.142857142857146" x2="571.4285714285714" y2="114.28571428571429"></line><line x1="571.4285714285714" y1="57.142857142857146" x2="514.2857142857143" y2="114.28571428571429"></line><line x1="571.4285714285714" y1="57.142857142857146" x2="628.5714285714286" y2="114.28571428571429"></line><line x1="628.5714285714286" y1="57.142857142857146" x2="571.4285714285714" y2="114.28571428571429"></line><line x1="628.5714285714286" y1="57.142857142857146" x2="685.7142857142857" y2="114.28571428571429"></line><line x1="685.7142857142857" y1="57.142857142857146" x2="628.5714285714286" y2="114.28571428571429"></line><line x1="685.7142857142857" y1="57.142857142857146" x2="742.8571428571428" y2="114.28571428571429"></line><line x1="742.8571428571428" y1="57.142857142857146" x2="685.7142857142857" y2="114.28571428571429"></line><line x1="742.8571428571428" y1="57.142857142857146" x2="799.9999999999999" y2="114.28571428571429"></line><line x1="799.9999999999999" y1="57.142857142857146" x2="742.8571428571428" y2="114.28571428571429"></line><line x1="799.9999999999999" y1="57.142857142857146" x2="857.142857142857" y2="114.28571428571429"></line><line x1="857.142857142857" y1="57.142857142857146" x2="799.9999999999999" y2="114.28571428571429"></line><line x1="0" y1="114.28571428571429" x2="57.142857142857146" y2="171.42857142857144"></line><line x1="57.142857142857146" y1="114.28571428571429" x2="0" y2="171.42857142857144"></line><line x1="57.142857142857146" y1="114.28571428571429" x2="114.28571428571429" y2="171.42857142857144"></line><line x1="114.28571428571429" y1="114.28571428571429" x2="57.142857142857146" y2="171.42857142857144"></line><line x1="114.28571428571429" y1="114.28571428571429" x2="171.42857142857144" y2="171.42857142857144"></line><line x1="171.42857142857144" y1="114.28571428571429" x2="114.28571428571429" y2="171.42857142857144"></line><line x1="171.42857142857144" y1="114.28571428571429" x2="228.57142857142858" y2="171.42857142857144"></line><line x1="228.57142857142858" y1="114.28571428571429" x2="171.42857142857144" y2="171.42857142857144"></line><line x1="228.57142857142858" y1="114.28571428571429" x2="285.7142857142857" y2="171.42857142857144"></line><line x1="285.7142857142857" y1="114.28571428571429" x2="228.57142857142858" y2="171.42857142857144"></line><line x1="285.7142857142857" y1="114.28571428571429" x2="342.8571428571429" y2="171.42857142857144"></line><line x1="342.8571428571429" y1="114.28571428571429" x2="285.7142857142857" y2="171.42857142857144"></line><line x1="342.8571428571429" y1="114.28571428571429" x2="400.00000000000006" y2="171.42857142857144"></line><line x1="400.00000000000006" y1="114.28571428571429" x2="342.8571428571429" y2="171.42857142857144"></line><line x1="400.00000000000006" y1="114.28571428571429" x2="457.1428571428572" y2="171.42857142857144"></line><line x1="457.1428571428572" y1="114.28571428571429" x2="400.00000000000006" y2="171.42857142857144"></line><line x1="457.1428571428572" y1="114.28571428571429" x2="514.2857142857143" y2="171.42857142857144"></line><line x1="514.2857142857143" y1="114.28571428571429" x2="457.1428571428572" y2="171.42857142857144"></line><line x1="514.2857142857143" y1="114.28571428571429" x2="571.4285714285714" y2="171.42857142857144"></line><line x1="571.4285714285714" y1="114.28571428571429" x2="514.2857142857143" y2="171.42857142857144"></line><line x1="571.4285714285714" y1="114.28571428571429" x2="628.5714285714286" y2="171.42857142857144"></line><line x1="628.5714285714286" y1="114.28571428571429" x2="571.4285714285714" y2="171.42857142857144"></line><line x1="628.5714285714286" y1="114.28571428571429" x2="685.7142857142857" y2="171.42857142857144"></line><line x1="685.7142857142857" y1="114.28571428571429" x2="628.5714285714286" y2="171.42857142857144"></line><line x1="685.7142857142857" y1="114.28571428571429" x2="742.8571428571428" y2="171.42857142857144"></line><line x1="742.8571428571428" y1="114.28571428571429" x2="685.7142857142857" y2="171.42857142857144"></line><line x1="742.8571428571428" y1="114.28571428571429" x2="799.9999999999999" y2="171.42857142857144"></line><line x1="799.9999999999999" y1="114.28571428571429" x2="742.8571428571428" y2="171.42857142857144"></line><line x1="799.9999999999999" y1="114.28571428571429" x2="857.142857142857" y2="171.42857142857144"></line><line x1="857.142857142857" y1="114.28571428571429" x2="799.9999999999999" y2="171.42857142857144"></line><line x1="0" y1="171.42857142857144" x2="57.142857142857146" y2="228.57142857142858"></line><line x1="57.142857142857146" y1="171.42857142857144" x2="0" y2="228.57142857142858"></line><line x1="57.142857142857146" y1="171.42857142857144" x2="114.28571428571429" y2="228.57142857142858"></line><line x1="114.28571428571429" y1="171.42857142857144" x2="57.142857142857146" y2="228.57142857142858"></line><line x1="114.28571428571429" y1="171.42857142857144" x2="171.42857142857144" y2="228.57142857142858"></line><line x1="171.42857142857144" y1="171.42857142857144" x2="114.28571428571429" y2="228.57142857142858"></line><line x1="171.42857142857144" y1="171.42857142857144" x2="228.57142857142858" y2="228.57142857142858"></line><line x1="228.57142857142858" y1="171.42857142857144" x2="171.42857142857144" y2="228.57142857142858"></line><line x1="228.57142857142858" y1="171.42857142857144" x2="285.7142857142857" y2="228.57142857142858"></line><line x1="285.7142857142857" y1="171.42857142857144" x2="228.57142857142858" y2="228.57142857142858"></line><line x1="285.7142857142857" y1="171.42857142857144" x2="342.8571428571429" y2="228.57142857142858"></line><line x1="342.8571428571429" y1="171.42857142857144" x2="285.7142857142857" y2="228.57142857142858"></line><line x1="342.8571428571429" y1="171.42857142857144" x2="400.00000000000006" y2="228.57142857142858"></line><line x1="400.00000000000006" y1="171.42857142857144" x2="342.8571428571429" y2="228.57142857142858"></line><line x1="400.00000000000006" y1="171.42857142857144" x2="457.1428571428572" y2="228.57142857142858"></line><line x1="457.1428571428572" y1="171.42857142857144" x2="400.00000000000006" y2="228.57142857142858"></line><line x1="457.1428571428572" y1="171.42857142857144" x2="514.2857142857143" y2="228.57142857142858"></line><line x1="514.2857142857143" y1="171.42857142857144" x2="457.1428571428572" y2="228.57142857142858"></line><line x1="514.2857142857143" y1="171.42857142857144" x2="571.4285714285714" y2="228.57142857142858"></line><line x1="571.4285714285714" y1="171.42857142857144" x2="514.2857142857143" y2="228.57142857142858"></line><line x1="571.4285714285714" y1="171.42857142857144" x2="628.5714285714286" y2="228.57142857142858"></line><line x1="628.5714285714286" y1="171.42857142857144" x2="571.4285714285714" y2="228.57142857142858"></line><line x1="628.5714285714286" y1="171.42857142857144" x2="685.7142857142857" y2="228.57142857142858"></line><line x1="685.7142857142857" y1="171.42857142857144" x2="628.5714285714286" y2="228.57142857142858"></line><line x1="685.7142857142857" y1="171.42857142857144" x2="742.8571428571428" y2="228.57142857142858"></line><line x1="742.8571428571428" y1="171.42857142857144" x2="685.7142857142857" y2="228.57142857142858"></line><line x1="742.8571428571428" y1="171.42857142857144" x2="799.9999999999999" y2="228.57142857142858"></line><line x1="799.9999999999999" y1="171.42857142857144" x2="742.8571428571428" y2="228.57142857142858"></line><line x1="799.9999999999999" y1="171.42857142857144" x2="857.142857142857" y2="228.57142857142858"></line><line x1="857.142857142857" y1="171.42857142857144" x2="799.9999999999999" y2="228.57142857142858"></line><line x1="0" y1="228.57142857142858" x2="57.142857142857146" y2="285.7142857142857"></line><line x1="57.142857142857146" y1="228.57142857142858" x2="0" y2="285.7142857142857"></line><line x1="57.142857142857146" y1="228.57142857142858" x2="114.28571428571429" y2="285.7142857142857"></line><line x1="114.28571428571429" y1="228.57142857142858" x2="57.142857142857146" y2="285.7142857142857"></line><line x1="114.28571428571429" y1="228.57142857142858" x2="171.42857142857144" y2="285.7142857142857"></line><line x1="171.42857142857144" y1="228.57142857142858" x2="114.28571428571429" y2="285.7142857142857"></line><line x1="171.42857142857144" y1="228.57142857142858" x2="228.57142857142858" y2="285.7142857142857"></line><line x1="228.57142857142858" y1="228.57142857142858" x2="171.42857142857144" y2="285.7142857142857"></line><line x1="228.57142857142858" y1="228.57142857142858" x2="285.7142857142857" y2="285.7142857142857"></line><line x1="285.7142857142857" y1="228.57142857142858" x2="228.57142857142858" y2="285.7142857142857"></line><line x1="285.7142857142857" y1="228.57142857142858" x2="342.8571428571429" y2="285.7142857142857"></line><line x1="342.8571428571429" y1="228.57142857142858" x2="285.7142857142857" y2="285.7142857142857"></line><line x1="342.8571428571429" y1="228.57142857142858" x2="400.00000000000006" y2="285.7142857142857"></line><line x1="400.00000000000006" y1="228.57142857142858" x2="342.8571428571429" y2="285.7142857142857"></line><line x1="400.00000000000006" y1="228.57142857142858" x2="457.1428571428572" y2="285.7142857142857"></line><line x1="457.1428571428572" y1="228.57142857142858" x2="400.00000000000006" y2="285.7142857142857"></line><line x1="457.1428571428572" y1="228.57142857142858" x2="514.2857142857143" y2="285.7142857142857"></line><line x1="514.2857142857143" y1="228.57142857142858" x2="457.1428571428572" y2="285.7142857142857"></line><line x1="514.2857142857143" y1="228.57142857142858" x2="571.4285714285714" y2="285.7142857142857"></line><line x1="571.4285714285714" y1="228.57142857142858" x2="514.2857142857143" y2="285.7142857142857"></line><line x1="571.4285714285714" y1="228.57142857142858" x2="628.5714285714286" y2="285.7142857142857"></line><line x1="628.5714285714286" y1="228.57142857142858" x2="571.4285714285714" y2="285.7142857142857"></line><line x1="628.5714285714286" y1="228.57142857142858" x2="685.7142857142857" y2="285.7142857142857"></line><line x1="685.7142857142857" y1="228.57142857142858" x2="628.5714285714286" y2="285.7142857142857"></line><line x1="685.7142857142857" y1="228.57142857142858" x2="742.8571428571428" y2="285.7142857142857"></line><line x1="742.8571428571428" y1="228.57142857142858" x2="685.7142857142857" y2="285.7142857142857"></line><line x1="742.8571428571428" y1="228.57142857142858" x2="799.9999999999999" y2="285.7142857142857"></line><line x1="799.9999999999999" y1="228.57142857142858" x2="742.8571428571428" y2="285.7142857142857"></line><line x1="799.9999999999999" y1="228.57142857142858" x2="857.142857142857" y2="285.7142857142857"></line><line x1="857.142857142857" y1="228.57142857142858" x2="799.9999999999999" y2="285.7142857142857"></line><line x1="0" y1="285.7142857142857" x2="57.142857142857146" y2="342.8571428571429"></line><line x1="57.142857142857146" y1="285.7142857142857" x2="0" y2="342.8571428571429"></line><line x1="57.142857142857146" y1="285.7142857142857" x2="114.28571428571429" y2="342.8571428571429"></line><line x1="114.28571428571429" y1="285.7142857142857" x2="57.142857142857146" y2="342.8571428571429"></line><line x1="114.28571428571429" y1="285.7142857142857" x2="171.42857142857144" y2="342.8571428571429"></line><line x1="171.42857142857144" y1="285.7142857142857" x2="114.28571428571429" y2="342.8571428571429"></line><line x1="171.42857142857144" y1="285.7142857142857" x2="228.57142857142858" y2="342.8571428571429"></line><line x1="228.57142857142858" y1="285.7142857142857" x2="171.42857142857144" y2="342.8571428571429"></line><line x1="228.57142857142858" y1="285.7142857142857" x2="285.7142857142857" y2="342.8571428571429"></line><line x1="285.7142857142857" y1="285.7142857142857" x2="228.57142857142858" y2="342.8571428571429"></line><line x1="285.7142857142857" y1="285.7142857142857" x2="342.8571428571429" y2="342.8571428571429"></line><line x1="342.8571428571429" y1="285.7142857142857" x2="285.7142857142857" y2="342.8571428571429"></line><line x1="342.8571428571429" y1="285.7142857142857" x2="400.00000000000006" y2="342.8571428571429"></line><line x1="400.00000000000006" y1="285.7142857142857" x2="342.8571428571429" y2="342.8571428571429"></line><line x1="400.00000000000006" y1="285.7142857142857" x2="457.1428571428572" y2="342.8571428571429"></line><line x1="457.1428571428572" y1="285.7142857142857" x2="400.00000000000006" y2="342.8571428571429"></line><line x1="457.1428571428572" y1="285.7142857142857" x2="514.2857142857143" y2="342.8571428571429"></line><line x1="514.2857142857143" y1="285.7142857142857" x2="457.1428571428572" y2="342.8571428571429"></line><line x1="514.2857142857143" y1="285.7142857142857" x2="571.4285714285714" y2="342.8571428571429"></line><line x1="571.4285714285714" y1="285.7142857142857" x2="514.2857142857143" y2="342.8571428571429"></line><line x1="571.4285714285714" y1="285.7142857142857" x2="628.5714285714286" y2="342.8571428571429"></line><line x1="628.5714285714286" y1="285.7142857142857" x2="571.4285714285714" y2="342.8571428571429"></line><line x1="628.5714285714286" y1="285.7142857142857" x2="685.7142857142857" y2="342.8571428571429"></line><line x1="685.7142857142857" y1="285.7142857142857" x2="628.5714285714286" y2="342.8571428571429"></line><line x1="685.7142857142857" y1="285.7142857142857" x2="742.8571428571428" y2="342.8571428571429"></line><line x1="742.8571428571428" y1="285.7142857142857" x2="685.7142857142857" y2="342.8571428571429"></line><line x1="742.8571428571428" y1="285.7142857142857" x2="799.9999999999999" y2="342.8571428571429"></line><line x1="799.9999999999999" y1="285.7142857142857" x2="742.8571428571428" y2="342.8571428571429"></line><line x1="799.9999999999999" y1="285.7142857142857" x2="857.142857142857" y2="342.8571428571429"></line><line x1="857.142857142857" y1="285.7142857142857" x2="799.9999999999999" y2="342.8571428571429"></line><line x1="0" y1="342.8571428571429" x2="57.142857142857146" y2="400.00000000000006"></line><line x1="57.142857142857146" y1="342.8571428571429" x2="0" y2="400.00000000000006"></line><line x1="57.142857142857146" y1="342.8571428571429" x2="114.28571428571429" y2="400.00000000000006"></line><line x1="114.28571428571429" y1="342.8571428571429" x2="57.142857142857146" y2="400.00000000000006"></line><line x1="114.28571428571429" y1="342.8571428571429" x2="171.42857142857144" y2="400.00000000000006"></line><line x1="171.42857142857144" y1="342.8571428571429" x2="114.28571428571429" y2="400.00000000000006"></line><line x1="171.42857142857144" y1="342.8571428571429" x2="228.57142857142858" y2="400.00000000000006"></line><line x1="228.57142857142858" y1="342.8571428571429" x2="171.42857142857144" y2="400.00000000000006"></line><line x1="228.57142857142858" y1="342.8571428571429" x2="285.7142857142857" y2="400.00000000000006"></line><line x1="285.7142857142857" y1="342.8571428571429" x2="228.57142857142858" y2="400.00000000000006"></line><line x1="285.7142857142857" y1="342.8571428571429" x2="342.8571428571429" y2="400.00000000000006"></line><line x1="342.8571428571429" y1="342.8571428571429" x2="285.7142857142857" y2="400.00000000000006"></line><line x1="342.8571428571429" y1="342.8571428571429" x2="400.00000000000006" y2="400.00000000000006"></line><line x1="400.00000000000006" y1="342.8571428571429" x2="342.8571428571429" y2="400.00000000000006"></line><line x1="400.00000000000006" y1="342.8571428571429" x2="457.1428571428572" y2="400.00000000000006"></line><line x1="457.1428571428572" y1="342.8571428571429" x2="400.00000000000006" y2="400.00000000000006"></line><line x1="457.1428571428572" y1="342.8571428571429" x2="514.2857142857143" y2="400.00000000000006"></line><line x1="514.2857142857143" y1="342.8571428571429" x2="457.1428571428572" y2="400.00000000000006"></line><line x1="514.2857142857143" y1="342.8571428571429" x2="571.4285714285714" y2="400.00000000000006"></line><line x1="571.4285714285714" y1="342.8571428571429" x2="514.2857142857143" y2="400.00000000000006"></line><line x1="571.4285714285714" y1="342.8571428571429" x2="628.5714285714286" y2="400.00000000000006"></line><line x1="628.5714285714286" y1="342.8571428571429" x2="571.4285714285714" y2="400.00000000000006"></line><line x1="628.5714285714286" y1="342.8571428571429" x2="685.7142857142857" y2="400.00000000000006"></line><line x1="685.7142857142857" y1="342.8571428571429" x2="628.5714285714286" y2="400.00000000000006"></line><line x1="685.7142857142857" y1="342.8571428571429" x2="742.8571428571428" y2="400.00000000000006"></line><line x1="742.8571428571428" y1="342.8571428571429" x2="685.7142857142857" y2="400.00000000000006"></line><line x1="742.8571428571428" y1="342.8571428571429" x2="799.9999999999999" y2="400.00000000000006"></line><line x1="799.9999999999999" y1="342.8571428571429" x2="742.8571428571428" y2="400.00000000000006"></line><line x1="799.9999999999999" y1="342.8571428571429" x2="857.142857142857" y2="400.00000000000006"></line><line x1="857.142857142857" y1="342.8571428571429" x2="799.9999999999999" y2="400.00000000000006"></line><line x1="0" y1="400.00000000000006" x2="57.142857142857146" y2="457.1428571428572"></line><line x1="57.142857142857146" y1="400.00000000000006" x2="0" y2="457.1428571428572"></line><line x1="57.142857142857146" y1="400.00000000000006" x2="114.28571428571429" y2="457.1428571428572"></line><line x1="114.28571428571429" y1="400.00000000000006" x2="57.142857142857146" y2="457.1428571428572"></line><line x1="114.28571428571429" y1="400.00000000000006" x2="171.42857142857144" y2="457.1428571428572"></line><line x1="171.42857142857144" y1="400.00000000000006" x2="114.28571428571429" y2="457.1428571428572"></line><line x1="171.42857142857144" y1="400.00000000000006" x2="228.57142857142858" y2="457.1428571428572"></line><line x1="228.57142857142858" y1="400.00000000000006" x2="171.42857142857144" y2="457.1428571428572"></line><line x1="228.57142857142858" y1="400.00000000000006" x2="285.7142857142857" y2="457.1428571428572"></line><line x1="285.7142857142857" y1="400.00000000000006" x2="228.57142857142858" y2="457.1428571428572"></line><line x1="285.7142857142857" y1="400.00000000000006" x2="342.8571428571429" y2="457.1428571428572"></line><line x1="342.8571428571429" y1="400.00000000000006" x2="285.7142857142857" y2="457.1428571428572"></line><line x1="342.8571428571429" y1="400.00000000000006" x2="400.00000000000006" y2="457.1428571428572"></line><line x1="400.00000000000006" y1="400.00000000000006" x2="342.8571428571429" y2="457.1428571428572"></line><line x1="400.00000000000006" y1="400.00000000000006" x2="457.1428571428572" y2="457.1428571428572"></line><line x1="457.1428571428572" y1="400.00000000000006" x2="400.00000000000006" y2="457.1428571428572"></line><line x1="457.1428571428572" y1="400.00000000000006" x2="514.2857142857143" y2="457.1428571428572"></line><line x1="514.2857142857143" y1="400.00000000000006" x2="457.1428571428572" y2="457.1428571428572"></line><line x1="514.2857142857143" y1="400.00000000000006" x2="571.4285714285714" y2="457.1428571428572"></line><line x1="571.4285714285714" y1="400.00000000000006" x2="514.2857142857143" y2="457.1428571428572"></line><line x1="571.4285714285714" y1="400.00000000000006" x2="628.5714285714286" y2="457.1428571428572"></line><line x1="628.5714285714286" y1="400.00000000000006" x2="571.4285714285714" y2="457.1428571428572"></line><line x1="628.5714285714286" y1="400.00000000000006" x2="685.7142857142857" y2="457.1428571428572"></line><line x1="685.7142857142857" y1="400.00000000000006" x2="628.5714285714286" y2="457.1428571428572"></line><line x1="685.7142857142857" y1="400.00000000000006" x2="742.8571428571428" y2="457.1428571428572"></line><line x1="742.8571428571428" y1="400.00000000000006" x2="685.7142857142857" y2="457.1428571428572"></line><line x1="742.8571428571428" y1="400.00000000000006" x2="799.9999999999999" y2="457.1428571428572"></line><line x1="799.9999999999999" y1="400.00000000000006" x2="742.8571428571428" y2="457.1428571428572"></line><line x1="799.9999999999999" y1="400.00000000000006" x2="857.142857142857" y2="457.1428571428572"></line><line x1="857.142857142857" y1="400.00000000000006" x2="799.9999999999999" y2="457.1428571428572"></line><line x1="0" y1="457.1428571428572" x2="57.142857142857146" y2="514.2857142857143"></line><line x1="57.142857142857146" y1="457.1428571428572" x2="0" y2="514.2857142857143"></line><line x1="57.142857142857146" y1="457.1428571428572" x2="114.28571428571429" y2="514.2857142857143"></line><line x1="114.28571428571429" y1="457.1428571428572" x2="57.142857142857146" y2="514.2857142857143"></line><line x1="114.28571428571429" y1="457.1428571428572" x2="171.42857142857144" y2="514.2857142857143"></line><line x1="171.42857142857144" y1="457.1428571428572" x2="114.28571428571429" y2="514.2857142857143"></line><line x1="171.42857142857144" y1="457.1428571428572" x2="228.57142857142858" y2="514.2857142857143"></line><line x1="228.57142857142858" y1="457.1428571428572" x2="171.42857142857144" y2="514.2857142857143"></line><line x1="228.57142857142858" y1="457.1428571428572" x2="285.7142857142857" y2="514.2857142857143"></line><line x1="285.7142857142857" y1="457.1428571428572" x2="228.57142857142858" y2="514.2857142857143"></line><line x1="285.7142857142857" y1="457.1428571428572" x2="342.8571428571429" y2="514.2857142857143"></line><line x1="342.8571428571429" y1="457.1428571428572" x2="285.7142857142857" y2="514.2857142857143"></line><line x1="342.8571428571429" y1="457.1428571428572" x2="400.00000000000006" y2="514.2857142857143"></line><line x1="400.00000000000006" y1="457.1428571428572" x2="342.8571428571429" y2="514.2857142857143"></line><line x1="400.00000000000006" y1="457.1428571428572" x2="457.1428571428572" y2="514.2857142857143"></line><line x1="457.1428571428572" y1="457.1428571428572" x2="400.00000000000006" y2="514.2857142857143"></line><line x1="457.1428571428572" y1="457.1428571428572" x2="514.2857142857143" y2="514.2857142857143"></line><line x1="514.2857142857143" y1="457.1428571428572" x2="457.1428571428572" y2="514.2857142857143"></line><line x1="514.2857142857143" y1="457.1428571428572" x2="571.4285714285714" y2="514.2857142857143"></line><line x1="571.4285714285714" y1="457.1428571428572" x2="514.2857142857143" y2="514.2857142857143"></line><line x1="571.4285714285714" y1="457.1428571428572" x2="628.5714285714286" y2="514.2857142857143"></line><line x1="628.5714285714286" y1="457.1428571428572" x2="571.4285714285714" y2="514.2857142857143"></line><line x1="628.5714285714286" y1="457.1428571428572" x2="685.7142857142857" y2="514.2857142857143"></line><line x1="685.7142857142857" y1="457.1428571428572" x2="628.5714285714286" y2="514.2857142857143"></line><line x1="685.7142857142857" y1="457.1428571428572" x2="742.8571428571428" y2="514.2857142857143"></line><line x1="742.8571428571428" y1="457.1428571428572" x2="685.7142857142857" y2="514.2857142857143"></line><line x1="742.8571428571428" y1="457.1428571428572" x2="799.9999999999999" y2="514.2857142857143"></line><line x1="799.9999999999999" y1="457.1428571428572" x2="742.8571428571428" y2="514.2857142857143"></line><line x1="799.9999999999999" y1="457.1428571428572" x2="857.142857142857" y2="514.2857142857143"></line><line x1="857.142857142857" y1="457.1428571428572" x2="799.9999999999999" y2="514.2857142857143"></line><line x1="0" y1="514.2857142857143" x2="57.142857142857146" y2="571.4285714285714"></line><line x1="57.142857142857146" y1="514.2857142857143" x2="0" y2="571.4285714285714"></line><line x1="57.142857142857146" y1="514.2857142857143" x2="114.28571428571429" y2="571.4285714285714"></line><line x1="114.28571428571429" y1="514.2857142857143" x2="57.142857142857146" y2="571.4285714285714"></line><line x1="114.28571428571429" y1="514.2857142857143" x2="171.42857142857144" y2="571.4285714285714"></line><line x1="171.42857142857144" y1="514.2857142857143" x2="114.28571428571429" y2="571.4285714285714"></line><line x1="171.42857142857144" y1="514.2857142857143" x2="228.57142857142858" y2="571.4285714285714"></line><line x1="228.57142857142858" y1="514.2857142857143" x2="171.42857142857144" y2="571.4285714285714"></line><line x1="228.57142857142858" y1="514.2857142857143" x2="285.7142857142857" y2="571.4285714285714"></line><line x1="285.7142857142857" y1="514.2857142857143" x2="228.57142857142858" y2="571.4285714285714"></line><line x1="285.7142857142857" y1="514.2857142857143" x2="342.8571428571429" y2="571.4285714285714"></line><line x1="342.8571428571429" y1="514.2857142857143" x2="285.7142857142857" y2="571.4285714285714"></line><line x1="342.8571428571429" y1="514.2857142857143" x2="400.00000000000006" y2="571.4285714285714"></line><line x1="400.00000000000006" y1="514.2857142857143" x2="342.8571428571429" y2="571.4285714285714"></line><line x1="400.00000000000006" y1="514.2857142857143" x2="457.1428571428572" y2="571.4285714285714"></line><line x1="457.1428571428572" y1="514.2857142857143" x2="400.00000000000006" y2="571.4285714285714"></line><line x1="457.1428571428572" y1="514.2857142857143" x2="514.2857142857143" y2="571.4285714285714"></line><line x1="514.2857142857143" y1="514.2857142857143" x2="457.1428571428572" y2="571.4285714285714"></line><line x1="514.2857142857143" y1="514.2857142857143" x2="571.4285714285714" y2="571.4285714285714"></line><line x1="571.4285714285714" y1="514.2857142857143" x2="514.2857142857143" y2="571.4285714285714"></line><line x1="571.4285714285714" y1="514.2857142857143" x2="628.5714285714286" y2="571.4285714285714"></line><line x1="628.5714285714286" y1="514.2857142857143" x2="571.4285714285714" y2="571.4285714285714"></line><line x1="628.5714285714286" y1="514.2857142857143" x2="685.7142857142857" y2="571.4285714285714"></line><line x1="685.7142857142857" y1="514.2857142857143" x2="628.5714285714286" y2="571.4285714285714"></line><line x1="685.7142857142857" y1="514.2857142857143" x2="742.8571428571428" y2="571.4285714285714"></line><line x1="742.8571428571428" y1="514.2857142857143" x2="685.7142857142857" y2="571.4285714285714"></line><line x1="742.8571428571428" y1="514.2857142857143" x2="799.9999999999999" y2="571.4285714285714"></line><line x1="799.9999999999999" y1="514.2857142857143" x2="742.8571428571428" y2="571.4285714285714"></line><line x1="799.9999999999999" y1="514.2857142857143" x2="857.142857142857" y2="571.4285714285714"></line><line x1="857.142857142857" y1="514.2857142857143" x2="799.9999999999999" y2="571.4285714285714"></line><line x1="0" y1="571.4285714285714" x2="57.142857142857146" y2="628.5714285714286"></line><line x1="57.142857142857146" y1="571.4285714285714" x2="0" y2="628.5714285714286"></line><line x1="57.142857142857146" y1="571.4285714285714" x2="114.28571428571429" y2="628.5714285714286"></line><line x1="114.28571428571429" y1="571.4285714285714" x2="57.142857142857146" y2="628.5714285714286"></line><line x1="114.28571428571429" y1="571.4285714285714" x2="171.42857142857144" y2="628.5714285714286"></line><line x1="171.42857142857144" y1="571.4285714285714" x2="114.28571428571429" y2="628.5714285714286"></line><line x1="171.42857142857144" y1="571.4285714285714" x2="228.57142857142858" y2="628.5714285714286"></line><line x1="228.57142857142858" y1="571.4285714285714" x2="171.42857142857144" y2="628.5714285714286"></line><line x1="228.57142857142858" y1="571.4285714285714" x2="285.7142857142857" y2="628.5714285714286"></line><line x1="285.7142857142857" y1="571.4285714285714" x2="228.57142857142858" y2="628.5714285714286"></line><line x1="285.7142857142857" y1="571.4285714285714" x2="342.8571428571429" y2="628.5714285714286"></line><line x1="342.8571428571429" y1="571.4285714285714" x2="285.7142857142857" y2="628.5714285714286"></line><line x1="342.8571428571429" y1="571.4285714285714" x2="400.00000000000006" y2="628.5714285714286"></line><line x1="400.00000000000006" y1="571.4285714285714" x2="342.8571428571429" y2="628.5714285714286"></line><line x1="400.00000000000006" y1="571.4285714285714" x2="457.1428571428572" y2="628.5714285714286"></line><line x1="457.1428571428572" y1="571.4285714285714" x2="400.00000000000006" y2="628.5714285714286"></line><line x1="457.1428571428572" y1="571.4285714285714" x2="514.2857142857143" y2="628.5714285714286"></line><line x1="514.2857142857143" y1="571.4285714285714" x2="457.1428571428572" y2="628.5714285714286"></line><line x1="514.2857142857143" y1="571.4285714285714" x2="571.4285714285714" y2="628.5714285714286"></line><line x1="571.4285714285714" y1="571.4285714285714" x2="514.2857142857143" y2="628.5714285714286"></line><line x1="571.4285714285714" y1="571.4285714285714" x2="628.5714285714286" y2="628.5714285714286"></line><line x1="628.5714285714286" y1="571.4285714285714" x2="571.4285714285714" y2="628.5714285714286"></line><line x1="628.5714285714286" y1="571.4285714285714" x2="685.7142857142857" y2="628.5714285714286"></line><line x1="685.7142857142857" y1="571.4285714285714" x2="628.5714285714286" y2="628.5714285714286"></line><line x1="685.7142857142857" y1="571.4285714285714" x2="742.8571428571428" y2="628.5714285714286"></line><line x1="742.8571428571428" y1="571.4285714285714" x2="685.7142857142857" y2="628.5714285714286"></line><line x1="742.8571428571428" y1="571.4285714285714" x2="799.9999999999999" y2="628.5714285714286"></line><line x1="799.9999999999999" y1="571.4285714285714" x2="742.8571428571428" y2="628.5714285714286"></line><line x1="799.9999999999999" y1="571.4285714285714" x2="857.142857142857" y2="628.5714285714286"></line><line x1="857.142857142857" y1="571.4285714285714" x2="799.9999999999999" y2="628.5714285714286"></line><line x1="0" y1="628.5714285714286" x2="57.142857142857146" y2="685.7142857142857"></line><line x1="57.142857142857146" y1="628.5714285714286" x2="0" y2="685.7142857142857"></line><line x1="57.142857142857146" y1="628.5714285714286" x2="114.28571428571429" y2="685.7142857142857"></line><line x1="114.28571428571429" y1="628.5714285714286" x2="57.142857142857146" y2="685.7142857142857"></line><line x1="114.28571428571429" y1="628.5714285714286" x2="171.42857142857144" y2="685.7142857142857"></line><line x1="171.42857142857144" y1="628.5714285714286" x2="114.28571428571429" y2="685.7142857142857"></line><line x1="171.42857142857144" y1="628.5714285714286" x2="228.57142857142858" y2="685.7142857142857"></line><line x1="228.57142857142858" y1="628.5714285714286" x2="171.42857142857144" y2="685.7142857142857"></line><line x1="228.57142857142858" y1="628.5714285714286" x2="285.7142857142857" y2="685.7142857142857"></line><line x1="285.7142857142857" y1="628.5714285714286" x2="228.57142857142858" y2="685.7142857142857"></line><line x1="285.7142857142857" y1="628.5714285714286" x2="342.8571428571429" y2="685.7142857142857"></line><line x1="342.8571428571429" y1="628.5714285714286" x2="285.7142857142857" y2="685.7142857142857"></line><line x1="342.8571428571429" y1="628.5714285714286" x2="400.00000000000006" y2="685.7142857142857"></line><line x1="400.00000000000006" y1="628.5714285714286" x2="342.8571428571429" y2="685.7142857142857"></line><line x1="400.00000000000006" y1="628.5714285714286" x2="457.1428571428572" y2="685.7142857142857"></line><line x1="457.1428571428572" y1="628.5714285714286" x2="400.00000000000006" y2="685.7142857142857"></line><line x1="457.1428571428572" y1="628.5714285714286" x2="514.2857142857143" y2="685.7142857142857"></line><line x1="514.2857142857143" y1="628.5714285714286" x2="457.1428571428572" y2="685.7142857142857"></line><line x1="514.2857142857143" y1="628.5714285714286" x2="571.4285714285714" y2="685.7142857142857"></line><line x1="571.4285714285714" y1="628.5714285714286" x2="514.2857142857143" y2="685.7142857142857"></line><line x1="571.4285714285714" y1="628.5714285714286" x2="628.5714285714286" y2="685.7142857142857"></line><line x1="628.5714285714286" y1="628.5714285714286" x2="571.4285714285714" y2="685.7142857142857"></line><line x1="628.5714285714286" y1="628.5714285714286" x2="685.7142857142857" y2="685.7142857142857"></line><line x1="685.7142857142857" y1="628.5714285714286" x2="628.5714285714286" y2="685.7142857142857"></line><line x1="685.7142857142857" y1="628.5714285714286" x2="742.8571428571428" y2="685.7142857142857"></line><line x1="742.8571428571428" y1="628.5714285714286" x2="685.7142857142857" y2="685.7142857142857"></line><line x1="742.8571428571428" y1="628.5714285714286" x2="799.9999999999999" y2="685.7142857142857"></line><line x1="799.9999999999999" y1="628.5714285714286" x2="742.8571428571428" y2="685.7142857142857"></line><line x1="799.9999999999999" y1="628.5714285714286" x2="857.142857142857" y2="685.7142857142857"></line><line x1="857.142857142857" y1="628.5714285714286" x2="799.9999999999999" y2="685.7142857142857"></line><line x1="0" y1="685.7142857142857" x2="57.142857142857146" y2="742.8571428571428"></line><line x1="57.142857142857146" y1="685.7142857142857" x2="0" y2="742.8571428571428"></line><line x1="57.142857142857146" y1="685.7142857142857" x2="114.28571428571429" y2="742.8571428571428"></line><line x1="114.28571428571429" y1="685.7142857142857" x2="57.142857142857146" y2="742.8571428571428"></line><line x1="114.28571428571429" y1="685.7142857142857" x2="171.42857142857144" y2="742.8571428571428"></line><line x1="171.42857142857144" y1="685.7142857142857" x2="114.28571428571429" y2="742.8571428571428"></line><line x1="171.42857142857144" y1="685.7142857142857" x2="228.57142857142858" y2="742.8571428571428"></line><line x1="228.57142857142858" y1="685.7142857142857" x2="171.42857142857144" y2="742.8571428571428"></line><line x1="228.57142857142858" y1="685.7142857142857" x2="285.7142857142857" y2="742.8571428571428"></line><line x1="285.7142857142857" y1="685.7142857142857" x2="228.57142857142858" y2="742.8571428571428"></line><line x1="285.7142857142857" y1="685.7142857142857" x2="342.8571428571429" y2="742.8571428571428"></line><line x1="342.8571428571429" y1="685.7142857142857" x2="285.7142857142857" y2="742.8571428571428"></line><line x1="342.8571428571429" y1="685.7142857142857" x2="400.00000000000006" y2="742.8571428571428"></line><line x1="400.00000000000006" y1="685.7142857142857" x2="342.8571428571429" y2="742.8571428571428"></line><line x1="400.00000000000006" y1="685.7142857142857" x2="457.1428571428572" y2="742.8571428571428"></line><line x1="457.1428571428572" y1="685.7142857142857" x2="400.00000000000006" y2="742.8571428571428"></line><line x1="457.1428571428572" y1="685.7142857142857" x2="514.2857142857143" y2="742.8571428571428"></line><line x1="514.2857142857143" y1="685.7142857142857" x2="457.1428571428572" y2="742.8571428571428"></line><line x1="514.2857142857143" y1="685.7142857142857" x2="571.4285714285714" y2="742.8571428571428"></line><line x1="571.4285714285714" y1="685.7142857142857" x2="514.2857142857143" y2="742.8571428571428"></line><line x1="571.4285714285714" y1="685.7142857142857" x2="628.5714285714286" y2="742.8571428571428"></line><line x1="628.5714285714286" y1="685.7142857142857" x2="571.4285714285714" y2="742.8571428571428"></line><line x1="628.5714285714286" y1="685.7142857142857" x2="685.7142857142857" y2="742.8571428571428"></line><line x1="685.7142857142857" y1="685.7142857142857" x2="628.5714285714286" y2="742.8571428571428"></line><line x1="685.7142857142857" y1="685.7142857142857" x2="742.8571428571428" y2="742.8571428571428"></line><line x1="742.8571428571428" y1="685.7142857142857" x2="685.7142857142857" y2="742.8571428571428"></line><line x1="742.8571428571428" y1="685.7142857142857" x2="799.9999999999999" y2="742.8571428571428"></line><line x1="799.9999999999999" y1="685.7142857142857" x2="742.8571428571428" y2="742.8571428571428"></line><line x1="799.9999999999999" y1="685.7142857142857" x2="857.142857142857" y2="742.8571428571428"></line><line x1="857.142857142857" y1="685.7142857142857" x2="799.9999999999999" y2="742.8571428571428"></line><line x1="0" y1="742.8571428571428" x2="57.142857142857146" y2="799.9999999999999"></line><line x1="57.142857142857146" y1="742.8571428571428" x2="0" y2="799.9999999999999"></line><line x1="57.142857142857146" y1="742.8571428571428" x2="114.28571428571429" y2="799.9999999999999"></line><line x1="114.28571428571429" y1="742.8571428571428" x2="57.142857142857146" y2="799.9999999999999"></line><line x1="114.28571428571429" y1="742.8571428571428" x2="171.42857142857144" y2="799.9999999999999"></line><line x1="171.42857142857144" y1="742.8571428571428" x2="114.28571428571429" y2="799.9999999999999"></line><line x1="171.42857142857144" y1="742.8571428571428" x2="228.57142857142858" y2="799.9999999999999"></line><line x1="228.57142857142858" y1="742.8571428571428" x2="171.42857142857144" y2="799.9999999999999"></line><line x1="228.57142857142858" y1="742.8571428571428" x2="285.7142857142857" y2="799.9999999999999"></line><line x1="285.7142857142857" y1="742.8571428571428" x2="228.57142857142858" y2="799.9999999999999"></line><line x1="285.7142857142857" y1="742.8571428571428" x2="342.8571428571429" y2="799.9999999999999"></line><line x1="342.8571428571429" y1="742.8571428571428" x2="285.7142857142857" y2="799.9999999999999"></line><line x1="342.8571428571429" y1="742.8571428571428" x2="400.00000000000006" y2="799.9999999999999"></line><line x1="400.00000000000006" y1="742.8571428571428" x2="342.8571428571429" y2="799.9999999999999"></line><line x1="400.00000000000006" y1="742.8571428571428" x2="457.1428571428572" y2="799.9999999999999"></line><line x1="457.1428571428572" y1="742.8571428571428" x2="400.00000000000006" y2="799.9999999999999"></line><line x1="457.1428571428572" y1="742.8571428571428" x2="514.2857142857143" y2="799.9999999999999"></line><line x1="514.2857142857143" y1="742.8571428571428" x2="457.1428571428572" y2="799.9999999999999"></line><line x1="514.2857142857143" y1="742.8571428571428" x2="571.4285714285714" y2="799.9999999999999"></line><line x1="571.4285714285714" y1="742.8571428571428" x2="514.2857142857143" y2="799.9999999999999"></line><line x1="571.4285714285714" y1="742.8571428571428" x2="628.5714285714286" y2="799.9999999999999"></line><line x1="628.5714285714286" y1="742.8571428571428" x2="571.4285714285714" y2="799.9999999999999"></line><line x1="628.5714285714286" y1="742.8571428571428" x2="685.7142857142857" y2="799.9999999999999"></line><line x1="685.7142857142857" y1="742.8571428571428" x2="628.5714285714286" y2="799.9999999999999"></line><line x1="685.7142857142857" y1="742.8571428571428" x2="742.8571428571428" y2="799.9999999999999"></line><line x1="742.8571428571428" y1="742.8571428571428" x2="685.7142857142857" y2="799.9999999999999"></line><line x1="742.8571428571428" y1="742.8571428571428" x2="799.9999999999999" y2="799.9999999999999"></line><line x1="799.9999999999999" y1="742.8571428571428" x2="742.8571428571428" y2="799.9999999999999"></line><line x1="799.9999999999999" y1="742.8571428571428" x2="857.142857142857" y2="799.9999999999999"></line><line x1="857.142857142857" y1="742.8571428571428" x2="799.9999999999999" y2="799.9999999999999"></line><line x1="0" y1="799.9999999999999" x2="57.142857142857146" y2="857.142857142857"></line><line x1="57.142857142857146" y1="799.9999999999999" x2="0" y2="857.142857142857"></line><line x1="57.142857142857146" y1="799.9999999999999" x2="114.28571428571429" y2="857.142857142857"></line><line x1="114.28571428571429" y1="799.9999999999999" x2="57.142857142857146" y2="857.142857142857"></line><line x1="114.28571428571429" y1="799.9999999999999" x2="171.42857142857144" y2="857.142857142857"></line><line x1="171.42857142857144" y1="799.9999999999999" x2="114.28571428571429" y2="857.142857142857"></line><line x1="171.42857142857144" y1="799.9999999999999" x2="228.57142857142858" y2="857.142857142857"></line><line x1="228.57142857142858" y1="799.9999999999999" x2="171.42857142857144" y2="857.142857142857"></line><line x1="228.57142857142858" y1="799.9999999999999" x2="285.7142857142857" y2="857.142857142857"></line><line x1="285.7142857142857" y1="799.9999999999999" x2="228.57142857142858" y2="857.142857142857"></line><line x1="285.7142857142857" y1="799.9999999999999" x2="342.8571428571429" y2="857.142857142857"></line><line x1="342.8571428571429" y1="799.9999999999999" x2="285.7142857142857" y2="857.142857142857"></line><line x1="342.8571428571429" y1="799.9999999999999" x2="400.00000000000006" y2="857.142857142857"></line><line x1="400.00000000000006" y1="799.9999999999999" x2="342.8571428571429" y2="857.142857142857"></line><line x1="400.00000000000006" y1="799.9999999999999" x2="457.1428571428572" y2="857.142857142857"></line><line x1="457.1428571428572" y1="799.9999999999999" x2="400.00000000000006" y2="857.142857142857"></line><line x1="457.1428571428572" y1="799.9999999999999" x2="514.2857142857143" y2="857.142857142857"></line><line x1="514.2857142857143" y1="799.9999999999999" x2="457.1428571428572" y2="857.142857142857"></line><line x1="514.2857142857143" y1="799.9999999999999" x2="571.4285714285714" y2="857.142857142857"></line><line x1="571.4285714285714" y1="799.9999999999999" x2="514.2857142857143" y2="857.142857142857"></line><line x1="571.4285714285714" y1="799.9999999999999" x2="628.5714285714286" y2="857.142857142857"></line><line x1="628.5714285714286" y1="799.9999999999999" x2="571.4285714285714" y2="857.142857142857"></line><line x1="628.5714285714286" y1="799.9999999999999" x2="685.7142857142857" y2="857.142857142857"></line><line x1="685.7142857142857" y1="799.9999999999999" x2="628.5714285714286" y2="857.142857142857"></line><line x1="685.7142857142857" y1="799.9999999999999" x2="742.8571428571428" y2="857.142857142857"></line><line x1="742.8571428571428" y1="799.9999999999999" x2="685.7142857142857" y2="857.142857142857"></line><line x1="742.8571428571428" y1="799.9999999999999" x2="799.9999999999999" y2="857.142857142857"></line><line x1="799.9999999999999" y1="799.9999999999999" x2="742.8571428571428" y2="857.142857142857"></line><line x1="799.9999999999999" y1="799.9999999999999" x2="857.142857142857" y2="857.142857142857"></line><line x1="857.142857142857" y1="799.9999999999999" x2="799.9999999999999" y2="857.142857142857"></line></g></svg>