<svg xmlns="http://www.w3.org/2000/svg" version="1.1" xmlns:xlink="http://www.w3.org/1999/xlink" xmlns:svgjs="http://svgjs.dev/svgjs" viewBox="0 0 800 800"><rect width="100%" height="100%" fill="#63c2d2"></rect><g fill="hsl(0, 0%, 100%)"><rect width="27" height="1" x="312.5" y="247.5" rx="0.5" transform="rotate(45, 326, 248)" opacity="0.21"></rect><rect width="26" height="1" x="752" y="329.5" rx="0.5" transform="rotate(45, 765, 330)" opacity="0.77"></rect><rect width="36" height="1" x="625" y="197.5" rx="0.5" transform="rotate(45, 643, 198)" opacity="0.71"></rect><rect width="30" height="1" x="426" y="501.5" rx="0.5" transform="rotate(45, 441, 502)" opacity="0.22"></rect><rect width="20" height="1" x="16" y="516.5" rx="0.5" transform="rotate(45, 26, 517)" opacity="0.29"></rect><rect width="28" height="1" x="286" y="770.5" rx="0.5" transform="rotate(45, 300, 771)" opacity="0.59"></rect><rect width="26" height="1" x="40" y="703.5" rx="0.5" transform="rotate(45, 53, 704)" opacity="0.27"></rect><rect width="26" height="1" x="537" y="258.5" rx="0.5" transform="rotate(45, 550, 259)" opacity="0.96"></rect><rect width="32" height="1" x="67" y="163.5" rx="0.5" transform="rotate(45, 83, 164)" opacity="0.22"></rect><rect width="45" height="1" x="508.5" y="155.5" rx="0.5" transform="rotate(45, 531, 156)" opacity="0.48"></rect><rect width="30" height="1" x="312" y="29.5" rx="0.5" transform="rotate(45, 327, 30)" opacity="0.90"></rect><rect width="32" height="1" x="587" y="686.5" rx="0.5" transform="rotate(45, 603, 687)" opacity="0.37"></rect><rect width="24" height="1" x="288" y="112.5" rx="0.5" transform="rotate(45, 300, 113)" opacity="0.60"></rect><rect width="32" height="1" x="346" y="748.5" rx="0.5" transform="rotate(45, 362, 749)" opacity="0.44"></rect><rect width="43" height="1" x="646.5" y="44.5" rx="0.5" transform="rotate(45, 668, 45)" opacity="0.68"></rect><rect width="27" height="1" x="545.5" y="390.5" rx="0.5" transform="rotate(45, 559, 391)" opacity="0.51"></rect><rect width="27" height="1" x="703.5" y="401.5" rx="0.5" transform="rotate(45, 717, 402)" opacity="0.70"></rect><rect width="27" height="1" x="570.5" y="608.5" rx="0.5" transform="rotate(45, 584, 609)" opacity="0.23"></rect><rect width="36" height="1" x="564" y="756.5" rx="0.5" transform="rotate(45, 582, 757)" opacity="0.28"></rect><rect width="26" height="1" x="760" y="487.5" rx="0.5" transform="rotate(45, 773, 488)" opacity="0.31"></rect><rect width="31" height="1" x="677.5" y="563.5" rx="0.5" transform="rotate(45, 693, 564)" opacity="0.46"></rect><rect width="31" height="1" x="183.5" y="373.5" rx="0.5" transform="rotate(45, 199, 374)" opacity="0.16"></rect><rect width="30" height="1" x="229" y="29.5" rx="0.5" transform="rotate(45, 244, 30)" opacity="0.52"></rect><rect width="27" height="1" x="57.5" y="97.5" rx="0.5" transform="rotate(45, 71, 98)" opacity="0.15"></rect><rect width="26" height="1" x="192" y="265.5" rx="0.5" transform="rotate(45, 205, 266)" opacity="0.43"></rect><rect width="25" height="1" x="195.5" y="688.5" rx="0.5" transform="rotate(45, 208, 689)" opacity="0.77"></rect><rect width="25" height="1" x="257.5" y="546.5" rx="0.5" transform="rotate(45, 270, 547)" opacity="0.27"></rect><rect width="31" height="1" x="368.5" y="350.5" rx="0.5" transform="rotate(45, 384, 351)" opacity="0.80"></rect><rect width="27" height="1" x="647.5" y="511.5" rx="0.5" transform="rotate(45, 661, 512)" opacity="0.26"></rect><rect width="26" height="1" x="83" y="572.5" rx="0.5" transform="rotate(45, 96, 573)" opacity="0.12"></rect><rect width="26" height="1" x="173" y="611.5" rx="0.5" transform="rotate(45, 186, 612)" opacity="0.76"></rect><rect width="25" height="1" x="335.5" y="84.5" rx="0.5" transform="rotate(45, 348, 85)" opacity="0.41"></rect><rect width="35" height="1" x="743.5" y="763.5" rx="0.5" transform="rotate(45, 761, 764)" opacity="0.94"></rect><rect width="34" height="1" x="500" y="337.5" rx="0.5" transform="rotate(45, 517, 338)" opacity="0.25"></rect><rect width="33" height="1" x="352.5" y="471.5" rx="0.5" transform="rotate(45, 369, 472)" opacity="0.88"></rect><rect width="27" height="1" x="639.5" y="769.5" rx="0.5" transform="rotate(45, 653, 770)" opacity="0.08"></rect><rect width="14" height="1" x="50" y="784.5" rx="0.5" transform="rotate(45, 57, 785)" opacity="0.88"></rect><rect width="22" height="1" x="250" y="688.5" rx="0.5" transform="rotate(45, 261, 689)" opacity="0.56"></rect><rect width="22" height="1" x="215" y="522.5" rx="0.5" transform="rotate(45, 226, 523)" opacity="0.71"></rect><rect width="31" height="1" x="647.5" y="451.5" rx="0.5" transform="rotate(45, 663, 452)" opacity="0.90"></rect><rect width="20" height="1" x="225" y="778.5" rx="0.5" transform="rotate(45, 235, 779)" opacity="0.57"></rect><rect width="20" height="1" x="121" y="19.5" rx="0.5" transform="rotate(45, 131, 20)" opacity="0.90"></rect><rect width="19" height="1" x="14.5" y="22.5" rx="0.5" transform="rotate(45, 24, 23)" opacity="0.93"></rect><rect width="30" height="1" x="153" y="438.5" rx="0.5" transform="rotate(45, 168, 439)" opacity="0.40"></rect><rect width="19" height="1" x="70.5" y="429.5" rx="0.5" transform="rotate(45, 80, 430)" opacity="0.09"></rect><rect width="29" height="1" x="9.5" y="129.5" rx="0.5" transform="rotate(45, 24, 130)" opacity="0.61"></rect><rect width="35" height="1" x="511.5" y="648.5" rx="0.5" transform="rotate(45, 529, 649)" opacity="0.56"></rect><rect width="20" height="1" x="225" y="644.5" rx="0.5" transform="rotate(45, 235, 645)" opacity="0.43"></rect><rect width="34" height="1" x="748" y="565.5" rx="0.5" transform="rotate(45, 765, 566)" opacity="0.37"></rect><rect width="33" height="1" x="525.5" y="560.5" rx="0.5" transform="rotate(45, 542, 561)" opacity="0.96"></rect><rect width="21" height="1" x="72.5" y="744.5" rx="0.5" transform="rotate(45, 83, 745)" opacity="0.21"></rect><rect width="28" height="1" x="298" y="696.5" rx="0.5" transform="rotate(45, 312, 697)" opacity="0.73"></rect><rect width="41" height="1" x="675.5" y="725.5" rx="0.5" transform="rotate(45, 696, 726)" opacity="0.81"></rect><rect width="25" height="1" x="145.5" y="666.5" rx="0.5" transform="rotate(45, 158, 667)" opacity="0.33"></rect><rect width="29" height="1" x="468.5" y="571.5" rx="0.5" transform="rotate(45, 483, 572)" opacity="0.17"></rect><rect width="29" height="1" x="472.5" y="32.5" rx="0.5" transform="rotate(45, 487, 33)" opacity="0.77"></rect><rect width="39" height="1" x="488.5" y="747.5" rx="0.5" transform="rotate(45, 508, 748)" opacity="0.45"></rect><rect width="16" height="1" x="11" y="479.5" rx="0.5" transform="rotate(45, 19, 480)" opacity="0.72"></rect><rect width="28" height="1" x="367" y="602.5" rx="0.5" transform="rotate(45, 381, 603)" opacity="0.93"></rect><rect width="38" height="1" x="423" y="290.5" rx="0.5" transform="rotate(45, 442, 291)" opacity="0.70"></rect><rect width="27" height="1" x="6.5" y="752.5" rx="0.5" transform="rotate(45, 20, 753)" opacity="0.22"></rect><rect width="22" height="1" x="71" y="47.5" rx="0.5" transform="rotate(45, 82, 48)" opacity="0.65"></rect><rect width="27" height="1" x="575.5" y="498.5" rx="0.5" transform="rotate(45, 589, 499)" opacity="0.86"></rect><rect width="22" height="1" x="86" y="630.5" rx="0.5" transform="rotate(45, 97, 631)" opacity="0.59"></rect><rect width="32" height="1" x="355" y="284.5" rx="0.5" transform="rotate(45, 371, 285)" opacity="0.44"></rect><rect width="33" height="1" x="655.5" y="297.5" rx="0.5" transform="rotate(45, 672, 298)" opacity="0.84"></rect><rect width="20" height="1" x="237" y="734.5" rx="0.5" transform="rotate(45, 247, 735)" opacity="0.64"></rect><rect width="26" height="1" x="110" y="409.5" rx="0.5" transform="rotate(45, 123, 410)" opacity="0.53"></rect><rect width="29" height="1" x="357.5" y="136.5" rx="0.5" transform="rotate(45, 372, 137)" opacity="0.74"></rect><rect width="27" height="1" x="603.5" y="555.5" rx="0.5" transform="rotate(45, 617, 556)" opacity="0.61"></rect><rect width="29" height="1" x="144.5" y="221.5" rx="0.5" transform="rotate(45, 159, 222)" opacity="0.75"></rect><rect width="19" height="1" x="768.5" y="375.5" rx="0.5" transform="rotate(45, 778, 376)" opacity="0.43"></rect><rect width="25" height="1" x="491.5" y="244.5" rx="0.5" transform="rotate(45, 504, 245)" opacity="0.16"></rect><rect width="38" height="1" x="618" y="385.5" rx="0.5" transform="rotate(45, 637, 386)" opacity="0.97"></rect><rect width="23" height="1" x="742.5" y="22.5" rx="0.5" transform="rotate(45, 754, 23)" opacity="0.35"></rect><rect width="28" height="1" x="12" y="646.5" rx="0.5" transform="rotate(45, 26, 647)" opacity="0.94"></rect><rect width="20" height="1" x="55" y="469.5" rx="0.5" transform="rotate(45, 65, 470)" opacity="0.68"></rect><rect width="29" height="1" x="627.5" y="631.5" rx="0.5" transform="rotate(45, 642, 632)" opacity="0.94"></rect><rect width="25" height="1" x="709.5" y="474.5" rx="0.5" transform="rotate(45, 722, 475)" opacity="0.69"></rect><rect width="26" height="1" x="204" y="209.5" rx="0.5" transform="rotate(45, 217, 210)" opacity="0.33"></rect><rect width="22" height="1" x="120" y="72.5" rx="0.5" transform="rotate(45, 131, 73)" opacity="0.78"></rect><rect width="26" height="1" x="575" y="83.5" rx="0.5" transform="rotate(45, 588, 84)" opacity="0.17"></rect><rect width="24" height="1" x="287" y="295.5" rx="0.5" transform="rotate(45, 299, 296)" opacity="0.51"></rect><rect width="39" height="1" x="393.5" y="41.5" rx="0.5" transform="rotate(45, 413, 42)" opacity="0.56"></rect><rect width="31" height="1" x="454.5" y="378.5" rx="0.5" transform="rotate(45, 470, 379)" opacity="0.89"></rect><rect width="25" height="1" x="56.5" y="527.5" rx="0.5" transform="rotate(45, 69, 528)" opacity="0.44"></rect><rect width="30" height="1" x="179" y="104.5" rx="0.5" transform="rotate(45, 194, 105)" opacity="0.38"></rect><rect width="31" height="1" x="130.5" y="294.5" rx="0.5" transform="rotate(45, 146, 295)" opacity="0.10"></rect><rect width="27" height="1" x="167.5" y="554.5" rx="0.5" transform="rotate(45, 181, 555)" opacity="0.61"></rect><rect width="32" height="1" x="20" y="379.5" rx="0.5" transform="rotate(45, 36, 380)" opacity="0.42"></rect><rect width="41" height="1" x="419.5" y="121.5" rx="0.5" transform="rotate(45, 440, 122)" opacity="0.26"></rect><rect width="20" height="1" x="105" y="771.5" rx="0.5" transform="rotate(45, 115, 772)" opacity="0.81"></rect><rect width="41" height="1" x="19.5" y="304.5" rx="0.5" transform="rotate(45, 40, 305)" opacity="0.16"></rect><rect width="32" height="1" x="509" y="75.5" rx="0.5" transform="rotate(45, 525, 76)" opacity="0.30"></rect><rect width="22" height="1" x="10" y="435.5" rx="0.5" transform="rotate(45, 21, 436)" opacity="0.97"></rect><rect width="25" height="1" x="761.5" y="169.5" rx="0.5" transform="rotate(45, 774, 170)" opacity="0.54"></rect><rect width="19" height="1" x="145.5" y="773.5" rx="0.5" transform="rotate(45, 155, 774)" opacity="0.23"></rect><rect width="27" height="1" x="413.5" y="771.5" rx="0.5" transform="rotate(45, 427, 772)" opacity="0.21"></rect><rect width="33" height="1" x="572.5" y="322.5" rx="0.5" transform="rotate(45, 589, 323)" opacity="0.69"></rect><rect width="25" height="1" x="246.5" y="89.5" rx="0.5" transform="rotate(45, 259, 90)" opacity="0.68"></rect><rect width="29" height="1" x="218.5" y="434.5" rx="0.5" transform="rotate(45, 233, 435)" opacity="0.99"></rect><rect width="24" height="1" x="247" y="606.5" rx="0.5" transform="rotate(45, 259, 607)" opacity="0.74"></rect><rect width="29" height="1" x="214.5" y="154.5" rx="0.5" transform="rotate(45, 229, 155)" opacity="0.42"></rect><rect width="32" height="1" x="403" y="699.5" rx="0.5" transform="rotate(45, 419, 700)" opacity="0.61"></rect><rect width="22" height="1" x="273" y="468.5" rx="0.5" transform="rotate(45, 284, 469)" opacity="0.49"></rect><rect width="29" height="1" x="286.5" y="418.5" rx="0.5" transform="rotate(45, 301, 419)" opacity="0.26"></rect><rect width="26" height="1" x="174" y="492.5" rx="0.5" transform="rotate(45, 187, 493)" opacity="0.49"></rect><rect width="27" height="1" x="562.5" y="443.5" rx="0.5" transform="rotate(45, 576, 444)" opacity="0.98"></rect><rect width="36" height="1" x="490" y="476.5" rx="0.5" transform="rotate(45, 508, 477)" opacity="0.79"></rect><rect width="23" height="1" x="297.5" y="162.5" rx="0.5" transform="rotate(45, 309, 163)" opacity="0.46"></rect><rect width="23" height="1" x="272.5" y="201.5" rx="0.5" transform="rotate(45, 284, 202)" opacity="0.87"></rect><rect width="32" height="1" x="751" y="267.5" rx="0.5" transform="rotate(45, 767, 268)" opacity="0.86"></rect><rect width="21" height="1" x="182.5" y="757.5" rx="0.5" transform="rotate(45, 193, 758)" opacity="0.77"></rect><rect width="26" height="1" x="141" y="165.5" rx="0.5" transform="rotate(45, 154, 166)" opacity="0.79"></rect><rect width="15" height="1" x="252.5" y="499.5" rx="0.5" transform="rotate(45, 260, 500)" opacity="0.27"></rect><rect width="26" height="1" x="760" y="424.5" rx="0.5" transform="rotate(45, 773, 425)" opacity="0.09"></rect><rect width="24" height="1" x="132" y="715.5" rx="0.5" transform="rotate(45, 144, 716)" opacity="0.42"></rect><rect width="32" height="1" x="416" y="431.5" rx="0.5" transform="rotate(45, 432, 432)" opacity="0.36"></rect><rect width="31" height="1" x="13.5" y="578.5" rx="0.5" transform="rotate(45, 29, 579)" opacity="0.55"></rect><rect width="32" height="1" x="301" y="584.5" rx="0.5" transform="rotate(45, 317, 585)" opacity="0.43"></rect><rect width="28" height="1" x="321" y="518.5" rx="0.5" transform="rotate(45, 335, 519)" opacity="0.91"></rect><rect width="27" height="1" x="461.5" y="672.5" rx="0.5" transform="rotate(45, 475, 673)" opacity="0.59"></rect><rect width="34" height="1" x="612" y="127.5" rx="0.5" transform="rotate(45, 629, 128)" opacity="0.65"></rect><rect width="27" height="1" x="424.5" y="623.5" rx="0.5" transform="rotate(45, 438, 624)" opacity="0.61"></rect><rect width="31" height="1" x="752.5" y="673.5" rx="0.5" transform="rotate(45, 768, 674)" opacity="0.48"></rect><rect width="34" height="1" x="736" y="81.5" rx="0.5" transform="rotate(45, 753, 82)" opacity="0.52"></rect><rect width="28" height="1" x="346" y="404.5" rx="0.5" transform="rotate(45, 360, 405)" opacity="0.64"></rect><rect width="30" height="1" x="593" y="250.5" rx="0.5" transform="rotate(45, 608, 251)" opacity="0.34"></rect><rect width="34" height="1" x="692" y="637.5" rx="0.5" transform="rotate(45, 709, 638)" opacity="0.32"></rect><rect width="36" height="1" x="77" y="241.5" rx="0.5" transform="rotate(45, 95, 242)" opacity="0.50"></rect><rect width="35" height="1" x="12.5" y="214.5" rx="0.5" transform="rotate(45, 30, 215)" opacity="0.78"></rect><rect width="32" height="1" x="108" y="501.5" rx="0.5" transform="rotate(45, 124, 502)" opacity="0.26"></rect><rect width="36" height="1" x="360" y="206.5" rx="0.5" transform="rotate(45, 378, 207)" opacity="0.70"></rect><rect width="22" height="1" x="12" y="66.5" rx="0.5" transform="rotate(45, 23, 67)" opacity="0.52"></rect><rect width="30" height="1" x="334" y="652.5" rx="0.5" transform="rotate(45, 349, 653)" opacity="0.65"></rect><rect width="25" height="1" x="692.5" y="346.5" rx="0.5" transform="rotate(45, 705, 347)" opacity="0.24"></rect><rect width="26" height="1" x="169" y="40.5" rx="0.5" transform="rotate(45, 182, 41)" opacity="0.19"></rect><rect width="23" height="1" x="572.5" y="22.5" rx="0.5" transform="rotate(45, 584, 23)" opacity="0.57"></rect><rect width="38" height="1" x="692" y="143.5" rx="0.5" transform="rotate(45, 711, 144)" opacity="0.65"></rect><rect width="14" height="1" x="60" y="13.5" rx="0.5" transform="rotate(45, 67, 14)" opacity="0.59"></rect><rect width="33" height="1" x="93.5" y="347.5" rx="0.5" transform="rotate(45, 110, 348)" opacity="0.85"></rect><rect width="19" height="1" x="74.5" y="667.5" rx="0.5" transform="rotate(45, 84, 668)" opacity="0.12"></rect><rect width="32" height="1" x="272" y="353.5" rx="0.5" transform="rotate(45, 288, 354)" opacity="0.87"></rect><rect width="36" height="1" x="435" y="201.5" rx="0.5" transform="rotate(45, 453, 202)" opacity="0.45"></rect><rect width="28" height="1" x="210" y="317.5" rx="0.5" transform="rotate(45, 224, 318)" opacity="0.46"></rect><rect width="33" height="1" x="701.5" y="229.5" rx="0.5" transform="rotate(45, 718, 230)" opacity="0.94"></rect><rect width="28" height="1" x="395" y="551.5" rx="0.5" transform="rotate(45, 409, 552)" opacity="0.78"></rect><rect width="25" height="1" x="248.5" y="251.5" rx="0.5" transform="rotate(45, 261, 252)" opacity="0.73"></rect><rect width="21" height="1" x="126.5" y="602.5" rx="0.5" transform="rotate(45, 137, 603)" opacity="0.87"></rect><rect width="24" height="1" x="114" y="118.5" rx="0.5" transform="rotate(45, 126, 119)" opacity="0.43"></rect></g></svg>