<svg xmlns="http://www.w3.org/2000/svg" version="1.1" xmlns:xlink="http://www.w3.org/1999/xlink" xmlns:svgjs="http://svgjs.dev/svgjs" viewBox="0 0 800 800"><g stroke-width="0.5" stroke="hsla(0, 0%, 100%, 1.00)" fill="none" stroke-linecap="round" transform="matrix(1,0,0,1,-5,-368.3661184310913)"><path d="M10,10C41.25,14.791666666666668,95.41666666666667,38.208333333333336,160,33C224.58333333333331,27.791666666666664,253.33333333333331,-13.958333333333334,320,-15C386.6666666666667,-16.041666666666668,413.3333333333333,26.333333333333332,480,28C546.6666666666666,29.666666666666668,573.3333333333334,-6.583333333333333,640,-7C706.6666666666666,-7.416666666666667,766.6666666666666,19.125,800,26"></path><path d="M10,10C41.25,14.791666666666668,95.41666666666667,38.208333333333336,160,33C224.58333333333331,27.791666666666664,253.33333333333331,-13.958333333333334,320,-15C386.6666666666667,-16.041666666666668,413.3333333333333,26.333333333333332,480,28C546.6666666666666,29.666666666666668,573.3333333333334,-6.583333333333333,640,-7C706.6666666666666,-7.416666666666667,766.6666666666666,19.125,800,26" transform="matrix(1,0,0,1,0,1518)"></path><path d="M10,10C41.25,14.791666666666668,95.41666666666667,38.208333333333336,160,33C224.58333333333331,27.791666666666664,253.33333333333331,-13.958333333333334,320,-15C386.6666666666667,-16.041666666666668,413.3333333333333,26.333333333333332,480,28C546.6666666666666,29.666666666666668,573.3333333333334,-6.583333333333333,640,-7C706.6666666666666,-7.416666666666667,766.6666666666666,19.125,800,26" transform="matrix(1,0,0,1,0,1452)"></path><path d="M10,10C41.25,14.791666666666668,95.41666666666667,38.208333333333336,160,33C224.58333333333331,27.791666666666664,253.33333333333331,-13.958333333333334,320,-15C386.6666666666667,-16.041666666666668,413.3333333333333,26.333333333333332,480,28C546.6666666666666,29.666666666666668,573.3333333333334,-6.583333333333333,640,-7C706.6666666666666,-7.416666666666667,766.6666666666666,19.125,800,26" transform="matrix(1,0,0,1,0,1386)"></path><path d="M10,10C41.25,14.791666666666668,95.41666666666667,38.208333333333336,160,33C224.58333333333331,27.791666666666664,253.33333333333331,-13.958333333333334,320,-15C386.6666666666667,-16.041666666666668,413.3333333333333,26.333333333333332,480,28C546.6666666666666,29.666666666666668,573.3333333333334,-6.583333333333333,640,-7C706.6666666666666,-7.416666666666667,766.6666666666666,19.125,800,26" transform="matrix(1,0,0,1,0,1320)"></path><path d="M10,10C41.25,14.791666666666668,95.41666666666667,38.208333333333336,160,33C224.58333333333331,27.791666666666664,253.33333333333331,-13.958333333333334,320,-15C386.6666666666667,-16.041666666666668,413.3333333333333,26.333333333333332,480,28C546.6666666666666,29.666666666666668,573.3333333333334,-6.583333333333333,640,-7C706.6666666666666,-7.416666666666667,766.6666666666666,19.125,800,26" transform="matrix(1,0,0,1,0,1254)"></path><path d="M10,10C41.25,14.791666666666668,95.41666666666667,38.208333333333336,160,33C224.58333333333331,27.791666666666664,253.33333333333331,-13.958333333333334,320,-15C386.6666666666667,-16.041666666666668,413.3333333333333,26.333333333333332,480,28C546.6666666666666,29.666666666666668,573.3333333333334,-6.583333333333333,640,-7C706.6666666666666,-7.416666666666667,766.6666666666666,19.125,800,26" transform="matrix(1,0,0,1,0,1188)"></path><path d="M10,10C41.25,14.791666666666668,95.41666666666667,38.208333333333336,160,33C224.58333333333331,27.791666666666664,253.33333333333331,-13.958333333333334,320,-15C386.6666666666667,-16.041666666666668,413.3333333333333,26.333333333333332,480,28C546.6666666666666,29.666666666666668,573.3333333333334,-6.583333333333333,640,-7C706.6666666666666,-7.416666666666667,766.6666666666666,19.125,800,26" transform="matrix(1,0,0,1,0,1122)"></path><path d="M10,10C41.25,14.791666666666668,95.41666666666667,38.208333333333336,160,33C224.58333333333331,27.791666666666664,253.33333333333331,-13.958333333333334,320,-15C386.6666666666667,-16.041666666666668,413.3333333333333,26.333333333333332,480,28C546.6666666666666,29.666666666666668,573.3333333333334,-6.583333333333333,640,-7C706.6666666666666,-7.416666666666667,766.6666666666666,19.125,800,26" transform="matrix(1,0,0,1,0,1056)"></path><path d="M10,10C41.25,14.791666666666668,95.41666666666667,38.208333333333336,160,33C224.58333333333331,27.791666666666664,253.33333333333331,-13.958333333333334,320,-15C386.6666666666667,-16.041666666666668,413.3333333333333,26.333333333333332,480,28C546.6666666666666,29.666666666666668,573.3333333333334,-6.583333333333333,640,-7C706.6666666666666,-7.416666666666667,766.6666666666666,19.125,800,26" transform="matrix(1,0,0,1,0,990)"></path><path d="M10,10C41.25,14.791666666666668,95.41666666666667,38.208333333333336,160,33C224.58333333333331,27.791666666666664,253.33333333333331,-13.958333333333334,320,-15C386.6666666666667,-16.041666666666668,413.3333333333333,26.333333333333332,480,28C546.6666666666666,29.666666666666668,573.3333333333334,-6.583333333333333,640,-7C706.6666666666666,-7.416666666666667,766.6666666666666,19.125,800,26" transform="matrix(1,0,0,1,0,924)"></path><path d="M10,10C41.25,14.791666666666668,95.41666666666667,38.208333333333336,160,33C224.58333333333331,27.791666666666664,253.33333333333331,-13.958333333333334,320,-15C386.6666666666667,-16.041666666666668,413.3333333333333,26.333333333333332,480,28C546.6666666666666,29.666666666666668,573.3333333333334,-6.583333333333333,640,-7C706.6666666666666,-7.416666666666667,766.6666666666666,19.125,800,26" transform="matrix(1,0,0,1,0,858)"></path><path d="M10,10C41.25,14.791666666666668,95.41666666666667,38.208333333333336,160,33C224.58333333333331,27.791666666666664,253.33333333333331,-13.958333333333334,320,-15C386.6666666666667,-16.041666666666668,413.3333333333333,26.333333333333332,480,28C546.6666666666666,29.666666666666668,573.3333333333334,-6.583333333333333,640,-7C706.6666666666666,-7.416666666666667,766.6666666666666,19.125,800,26" transform="matrix(1,0,0,1,0,792)"></path><path d="M10,10C41.25,14.791666666666668,95.41666666666667,38.208333333333336,160,33C224.58333333333331,27.791666666666664,253.33333333333331,-13.958333333333334,320,-15C386.6666666666667,-16.041666666666668,413.3333333333333,26.333333333333332,480,28C546.6666666666666,29.666666666666668,573.3333333333334,-6.583333333333333,640,-7C706.6666666666666,-7.416666666666667,766.6666666666666,19.125,800,26" transform="matrix(1,0,0,1,0,726)"></path><path d="M10,10C41.25,14.791666666666668,95.41666666666667,38.208333333333336,160,33C224.58333333333331,27.791666666666664,253.33333333333331,-13.958333333333334,320,-15C386.6666666666667,-16.041666666666668,413.3333333333333,26.333333333333332,480,28C546.6666666666666,29.666666666666668,573.3333333333334,-6.583333333333333,640,-7C706.6666666666666,-7.416666666666667,766.6666666666666,19.125,800,26" transform="matrix(1,0,0,1,0,660)"></path><path d="M10,10C41.25,14.791666666666668,95.41666666666667,38.208333333333336,160,33C224.58333333333331,27.791666666666664,253.33333333333331,-13.958333333333334,320,-15C386.6666666666667,-16.041666666666668,413.3333333333333,26.333333333333332,480,28C546.6666666666666,29.666666666666668,573.3333333333334,-6.583333333333333,640,-7C706.6666666666666,-7.416666666666667,766.6666666666666,19.125,800,26" transform="matrix(1,0,0,1,0,594)"></path><path d="M10,10C41.25,14.791666666666668,95.41666666666667,38.208333333333336,160,33C224.58333333333331,27.791666666666664,253.33333333333331,-13.958333333333334,320,-15C386.6666666666667,-16.041666666666668,413.3333333333333,26.333333333333332,480,28C546.6666666666666,29.666666666666668,573.3333333333334,-6.583333333333333,640,-7C706.6666666666666,-7.416666666666667,766.6666666666666,19.125,800,26" transform="matrix(1,0,0,1,0,528)"></path><path d="M10,10C41.25,14.791666666666668,95.41666666666667,38.208333333333336,160,33C224.58333333333331,27.791666666666664,253.33333333333331,-13.958333333333334,320,-15C386.6666666666667,-16.041666666666668,413.3333333333333,26.333333333333332,480,28C546.6666666666666,29.666666666666668,573.3333333333334,-6.583333333333333,640,-7C706.6666666666666,-7.416666666666667,766.6666666666666,19.125,800,26" transform="matrix(1,0,0,1,0,462)"></path><path d="M10,10C41.25,14.791666666666668,95.41666666666667,38.208333333333336,160,33C224.58333333333331,27.791666666666664,253.33333333333331,-13.958333333333334,320,-15C386.6666666666667,-16.041666666666668,413.3333333333333,26.333333333333332,480,28C546.6666666666666,29.666666666666668,573.3333333333334,-6.583333333333333,640,-7C706.6666666666666,-7.416666666666667,766.6666666666666,19.125,800,26" transform="matrix(1,0,0,1,0,396)"></path><path d="M10,10C41.25,14.791666666666668,95.41666666666667,38.208333333333336,160,33C224.58333333333331,27.791666666666664,253.33333333333331,-13.958333333333334,320,-15C386.6666666666667,-16.041666666666668,413.3333333333333,26.333333333333332,480,28C546.6666666666666,29.666666666666668,573.3333333333334,-6.583333333333333,640,-7C706.6666666666666,-7.416666666666667,766.6666666666666,19.125,800,26" transform="matrix(1,0,0,1,0,330)"></path><path d="M10,10C41.25,14.791666666666668,95.41666666666667,38.208333333333336,160,33C224.58333333333331,27.791666666666664,253.33333333333331,-13.958333333333334,320,-15C386.6666666666667,-16.041666666666668,413.3333333333333,26.333333333333332,480,28C546.6666666666666,29.666666666666668,573.3333333333334,-6.583333333333333,640,-7C706.6666666666666,-7.416666666666667,766.6666666666666,19.125,800,26" transform="matrix(1,0,0,1,0,264)"></path><path d="M10,10C41.25,14.791666666666668,95.41666666666667,38.208333333333336,160,33C224.58333333333331,27.791666666666664,253.33333333333331,-13.958333333333334,320,-15C386.6666666666667,-16.041666666666668,413.3333333333333,26.333333333333332,480,28C546.6666666666666,29.666666666666668,573.3333333333334,-6.583333333333333,640,-7C706.6666666666666,-7.416666666666667,766.6666666666666,19.125,800,26" transform="matrix(1,0,0,1,0,198)"></path><path d="M10,10C41.25,14.791666666666668,95.41666666666667,38.208333333333336,160,33C224.58333333333331,27.791666666666664,253.33333333333331,-13.958333333333334,320,-15C386.6666666666667,-16.041666666666668,413.3333333333333,26.333333333333332,480,28C546.6666666666666,29.666666666666668,573.3333333333334,-6.583333333333333,640,-7C706.6666666666666,-7.416666666666667,766.6666666666666,19.125,800,26" transform="matrix(1,0,0,1,0,132)"></path><path d="M10,10C41.25,14.791666666666668,95.41666666666667,38.208333333333336,160,33C224.58333333333331,27.791666666666664,253.33333333333331,-13.958333333333334,320,-15C386.6666666666667,-16.041666666666668,413.3333333333333,26.333333333333332,480,28C546.6666666666666,29.666666666666668,573.3333333333334,-6.583333333333333,640,-7C706.6666666666666,-7.416666666666667,766.6666666666666,19.125,800,26" transform="matrix(1,0,0,1,0,66)"></path></g></svg>