<svg xmlns="http://www.w3.org/2000/svg" version="1.1" xmlns:xlink="http://www.w3.org/1999/xlink" xmlns:svgjs="http://svgjs.dev/svgjs" viewBox="0 0 800 800"><g fill="hsl(0, 0%, 100%)"><path d="M116 607H166C194 607 216 629 216 657H166C138 657 116 635 116 607Z " transform="matrix(-0.3614277973872819,-0.2171677300718899,0.2171677300718899,-0.3614277973872819,88.74700896085442,896.4722111406961)" opacity="0.65"></path><path d="M698 710H748C776 710 798 732 798 760H748C720 760 698 738 698 710Z " transform="matrix(-0.3745466398827083,-0.1746539665135292,0.1746539665135292,-0.3745466398827083,899.7902212448219,1140.9329472659106)" opacity="0.63"></path><path d="M452 360H502C530 360 552 382 552 410H502C474 410 452 388 452 360Z " transform="matrix(-0.36889286436203395,-0.19614381525391208,0.19614381525391208,-0.36889286436203395,611.6688490369849,625.4879480368469)" opacity="0.64"></path><path d="M350 411H400C428 411 450 433 450 461H400C372 461 350 439 350 411Z " transform="matrix(-0.3667218859001274,-0.20327726072027014,0.20327726072027014,-0.3667218859001274,458.05986868601326,677.2016465405636)" opacity="0.64"></path><path d="M272 35H322C350 35 372 57 372 85H322C294 85 272 63 272 35Z " transform="matrix(-0.3837312670303175,-0.05392991256984712,0.05392991256984712,-0.3837312670303175,442.3256732295714,100.38930786930982)" opacity="0.59"></path><path d="M591 710H641C669 710 691 732 691 760H641C613 760 591 738 591 710Z " transform="matrix(-0.373332394417087,-0.1820863751245368,0.1820863751245368,-0.373332394417087,746.4725791048182,1126.116676351387)" opacity="0.64"></path><path d="M297 514H347C375 514 397 536 397 564H347C319 564 297 542 297 514Z " transform="matrix(-0.36383617595166734,-0.21006091412661926,0.21006091412661926,-0.36383617595166734,360.02832034098077,807.9988360398856)" opacity="0.64"></path><path d="M459 487H509C537 487 559 509 559 537H509C481 537 459 515 459 487Z " transform="matrix(-0.36889286436203395,-0.19614381525391208,0.19614381525391208,-0.36889286436203395,596.3408345502723,800.7103485176026)" opacity="0.64"></path></g><g fill="none" stroke-width="3" stroke="hsl(0, 0%, 100%)"><path d="M108 391H158C186 391 208 413 208 441H158C130 441 108 419 108 391Z " transform="matrix(-0.3614277973872819,-0.2171677300718899,0.2171677300718899,-0.3614277973872819,124.76381627728435,600.666465064468)" opacity="0.65"></path><path d="M104 159H154C182 159 204 181 204 209H154C126 209 104 187 104 159Z " transform="matrix(-0.3614277973872819,-0.2171677300718899,0.2171677300718899,-0.3614277973872819,169.7010184644137,283.94654515033096)" opacity="0.65"></path><path d="M156 278H206C234 278 256 300 256 328H206C178 328 156 306 156 278Z " transform="matrix(-0.36489820511231535,-0.21067407694840662,0.21067407694840662,-0.36489820511231535,217.33478493776977,456.96301600040334)" opacity="0.65"></path></g></svg>