<svg xmlns="http://www.w3.org/2000/svg" version="1.1" xmlns:xlink="http://www.w3.org/1999/xlink" xmlns:svgjs="http://svgjs.dev/svgjs" viewBox="0 0 800 800"><rect width="100%" height="100%" fill="#000052"></rect><g fill="hsl(0, 0%, 100%)"><rect width="34" height="1" x="748" y="664.5" rx="0.5" transform="rotate(45, 765, 665)" opacity="0.12"></rect><rect width="33" height="1" x="691.5" y="762.5" rx="0.5" transform="rotate(45, 708, 763)" opacity="0.13"></rect><rect width="24" height="1" x="463" y="114.5" rx="0.5" transform="rotate(45, 475, 115)" opacity="0.66"></rect><rect width="31" height="1" x="438.5" y="285.5" rx="0.5" transform="rotate(45, 454, 286)" opacity="0.59"></rect><rect width="28" height="1" x="466" y="710.5" rx="0.5" transform="rotate(45, 480, 711)" opacity="0.81"></rect><rect width="33" height="1" x="421.5" y="32.5" rx="0.5" transform="rotate(45, 438, 33)" opacity="0.13"></rect><rect width="29" height="1" x="443.5" y="651.5" rx="0.5" transform="rotate(45, 458, 652)" opacity="0.14"></rect><rect width="16" height="1" x="48" y="438.5" rx="0.5" transform="rotate(45, 56, 439)" opacity="0.14"></rect><rect width="34" height="1" x="347" y="552.5" rx="0.5" transform="rotate(45, 364, 553)" opacity="0.63"></rect><rect width="45" height="1" x="648.5" y="508.5" rx="0.5" transform="rotate(45, 671, 509)" opacity="0.08"></rect><rect width="39" height="1" x="523.5" y="614.5" rx="0.5" transform="rotate(45, 543, 615)" opacity="0.75"></rect><rect width="32" height="1" x="398" y="100.5" rx="0.5" transform="rotate(45, 414, 101)" opacity="0.54"></rect><rect width="22" height="1" x="100" y="664.5" rx="0.5" transform="rotate(45, 111, 665)" opacity="0.20"></rect><rect width="33" height="1" x="560.5" y="263.5" rx="0.5" transform="rotate(45, 577, 264)" opacity="0.33"></rect><rect width="36" height="1" x="447" y="364.5" rx="0.5" transform="rotate(45, 465, 365)" opacity="0.45"></rect><rect width="29" height="1" x="547.5" y="355.5" rx="0.5" transform="rotate(45, 562, 356)" opacity="0.96"></rect><rect width="26" height="1" x="406" y="433.5" rx="0.5" transform="rotate(45, 419, 434)" opacity="0.25"></rect><rect width="33" height="1" x="506.5" y="297.5" rx="0.5" transform="rotate(45, 523, 298)" opacity="0.09"></rect><rect width="15" height="1" x="245.5" y="783.5" rx="0.5" transform="rotate(45, 253, 784)" opacity="0.15"></rect><rect width="32" height="1" x="518" y="522.5" rx="0.5" transform="rotate(45, 534, 523)" opacity="0.08"></rect><rect width="25" height="1" x="7.5" y="634.5" rx="0.5" transform="rotate(45, 20, 635)" opacity="0.95"></rect><rect width="30" height="1" x="677" y="34.5" rx="0.5" transform="rotate(45, 692, 35)" opacity="0.39"></rect><rect width="27" height="1" x="14.5" y="566.5" rx="0.5" transform="rotate(45, 28, 567)" opacity="0.96"></rect><rect width="27" height="1" x="237.5" y="597.5" rx="0.5" transform="rotate(45, 251, 598)" opacity="0.31"></rect><rect width="24" height="1" x="134" y="263.5" rx="0.5" transform="rotate(45, 146, 264)" opacity="0.59"></rect><rect width="28" height="1" x="374" y="266.5" rx="0.5" transform="rotate(45, 388, 267)" opacity="0.74"></rect><rect width="33" height="1" x="299.5" y="632.5" rx="0.5" transform="rotate(45, 316, 633)" opacity="0.12"></rect><rect width="30" height="1" x="195" y="180.5" rx="0.5" transform="rotate(45, 210, 181)" opacity="0.45"></rect><rect width="34" height="1" x="568" y="448.5" rx="0.5" transform="rotate(45, 585, 449)" opacity="0.72"></rect><rect width="31" height="1" x="232.5" y="439.5" rx="0.5" transform="rotate(45, 248, 440)" opacity="0.61"></rect><rect width="25" height="1" x="81.5" y="430.5" rx="0.5" transform="rotate(45, 94, 431)" opacity="0.24"></rect><rect width="31" height="1" x="171.5" y="712.5" rx="0.5" transform="rotate(45, 187, 713)" opacity="0.88"></rect><rect width="24" height="1" x="105" y="711.5" rx="0.5" transform="rotate(45, 117, 712)" opacity="0.89"></rect><rect width="32" height="1" x="589" y="123.5" rx="0.5" transform="rotate(45, 605, 124)" opacity="0.99"></rect><rect width="35" height="1" x="228.5" y="371.5" rx="0.5" transform="rotate(45, 246, 372)" opacity="0.71"></rect><rect width="26" height="1" x="624" y="232.5" rx="0.5" transform="rotate(45, 637, 233)" opacity="0.66"></rect><rect width="35" height="1" x="365.5" y="639.5" rx="0.5" transform="rotate(45, 383, 640)" opacity="0.98"></rect><rect width="30" height="1" x="407" y="721.5" rx="0.5" transform="rotate(45, 422, 722)" opacity="0.84"></rect><rect width="30" height="1" x="350" y="138.5" rx="0.5" transform="rotate(45, 365, 139)" opacity="0.66"></rect><rect width="22" height="1" x="10" y="127.5" rx="0.5" transform="rotate(45, 21, 128)" opacity="0.13"></rect><rect width="29" height="1" x="178.5" y="650.5" rx="0.5" transform="rotate(45, 193, 651)" opacity="0.21"></rect><rect width="24" height="1" x="763" y="23.5" rx="0.5" transform="rotate(45, 775, 24)" opacity="0.50"></rect><rect width="32" height="1" x="751" y="741.5" rx="0.5" transform="rotate(45, 767, 742)" opacity="0.42"></rect><rect width="36" height="1" x="677" y="425.5" rx="0.5" transform="rotate(45, 695, 426)" opacity="0.68"></rect><rect width="27" height="1" x="132.5" y="390.5" rx="0.5" transform="rotate(45, 146, 391)" opacity="0.41"></rect><rect width="25" height="1" x="524.5" y="678.5" rx="0.5" transform="rotate(45, 537, 679)" opacity="0.97"></rect><rect width="14" height="1" x="8" y="773.5" rx="0.5" transform="rotate(45, 15, 774)" opacity="0.30"></rect><rect width="30" height="1" x="398" y="508.5" rx="0.5" transform="rotate(45, 413, 509)" opacity="0.12"></rect><rect width="40" height="1" x="130" y="39.5" rx="0.5" transform="rotate(45, 150, 40)" opacity="0.80"></rect><rect width="20" height="1" x="95" y="239.5" rx="0.5" transform="rotate(45, 105, 240)" opacity="0.52"></rect><rect width="27" height="1" x="148.5" y="562.5" rx="0.5" transform="rotate(45, 162, 563)" opacity="0.83"></rect><rect width="24" height="1" x="516" y="394.5" rx="0.5" transform="rotate(45, 528, 395)" opacity="0.89"></rect><rect width="36" height="1" x="330" y="707.5" rx="0.5" transform="rotate(45, 348, 708)" opacity="0.47"></rect><rect width="19" height="1" x="531.5" y="76.5" rx="0.5" transform="rotate(45, 541, 77)" opacity="0.26"></rect><rect width="26" height="1" x="298" y="482.5" rx="0.5" transform="rotate(45, 311, 483)" opacity="0.23"></rect><rect width="26" height="1" x="18" y="74.5" rx="0.5" transform="rotate(45, 31, 75)" opacity="0.20"></rect><rect width="21" height="1" x="482.5" y="71.5" rx="0.5" transform="rotate(45, 493, 72)" opacity="0.68"></rect><rect width="31" height="1" x="751.5" y="116.5" rx="0.5" transform="rotate(45, 767, 117)" opacity="0.56"></rect><rect width="29" height="1" x="275.5" y="32.5" rx="0.5" transform="rotate(45, 290, 33)" opacity="0.17"></rect><rect width="33" height="1" x="388.5" y="196.5" rx="0.5" transform="rotate(45, 405, 197)" opacity="0.14"></rect><rect width="28" height="1" x="496" y="445.5" rx="0.5" transform="rotate(45, 510, 446)" opacity="0.47"></rect><rect width="25" height="1" x="126.5" y="507.5" rx="0.5" transform="rotate(45, 139, 508)" opacity="0.62"></rect><rect width="28" height="1" x="179" y="352.5" rx="0.5" transform="rotate(45, 193, 353)" opacity="0.33"></rect><rect width="23" height="1" x="48.5" y="487.5" rx="0.5" transform="rotate(45, 60, 488)" opacity="0.11"></rect><rect width="32" height="1" x="297" y="339.5" rx="0.5" transform="rotate(45, 313, 340)" opacity="0.83"></rect><rect width="27" height="1" x="451.5" y="475.5" rx="0.5" transform="rotate(45, 465, 476)" opacity="0.65"></rect><rect width="24" height="1" x="11" y="179.5" rx="0.5" transform="rotate(45, 23, 180)" opacity="0.35"></rect><rect width="31" height="1" x="618.5" y="397.5" rx="0.5" transform="rotate(45, 634, 398)" opacity="0.28"></rect><rect width="27" height="1" x="618.5" y="69.5" rx="0.5" transform="rotate(45, 632, 70)" opacity="0.43"></rect><rect width="23" height="1" x="213.5" y="22.5" rx="0.5" transform="rotate(45, 225, 23)" opacity="0.61"></rect><rect width="34" height="1" x="644" y="294.5" rx="0.5" transform="rotate(45, 661, 295)" opacity="0.34"></rect><rect width="20" height="1" x="86" y="525.5" rx="0.5" transform="rotate(45, 96, 526)" opacity="0.98"></rect><rect width="24" height="1" x="223" y="742.5" rx="0.5" transform="rotate(45, 235, 743)" opacity="0.32"></rect><rect width="17" height="1" x="38.5" y="764.5" rx="0.5" transform="rotate(45, 47, 765)" opacity="0.50"></rect><rect width="19" height="1" x="8.5" y="446.5" rx="0.5" transform="rotate(45, 18, 447)" opacity="0.83"></rect><rect width="19" height="1" x="10.5" y="509.5" rx="0.5" transform="rotate(45, 20, 510)" opacity="0.54"></rect><rect width="20" height="1" x="16" y="714.5" rx="0.5" transform="rotate(45, 26, 715)" opacity="0.18"></rect><rect width="22" height="1" x="357" y="359.5" rx="0.5" transform="rotate(45, 368, 360)" opacity="0.66"></rect><rect width="21" height="1" x="613.5" y="20.5" rx="0.5" transform="rotate(45, 624, 21)" opacity="0.25"></rect><rect width="33" height="1" x="252.5" y="206.5" rx="0.5" transform="rotate(45, 269, 207)" opacity="0.89"></rect><rect width="23" height="1" x="14.5" y="22.5" rx="0.5" transform="rotate(45, 26, 23)" opacity="0.83"></rect><rect width="24" height="1" x="18" y="350.5" rx="0.5" transform="rotate(45, 30, 351)" opacity="0.78"></rect><rect width="19" height="1" x="54.5" y="252.5" rx="0.5" transform="rotate(45, 64, 253)" opacity="0.24"></rect><rect width="28" height="1" x="420" y="591.5" rx="0.5" transform="rotate(45, 434, 592)" opacity="0.41"></rect><rect width="24" height="1" x="377" y="774.5" rx="0.5" transform="rotate(45, 389, 775)" opacity="0.27"></rect><rect width="20" height="1" x="376" y="399.5" rx="0.5" transform="rotate(45, 386, 400)" opacity="0.54"></rect><rect width="28" height="1" x="69" y="38.5" rx="0.5" transform="rotate(45, 83, 39)" opacity="0.83"></rect><rect width="26" height="1" x="63" y="189.5" rx="0.5" transform="rotate(45, 76, 190)" opacity="0.15"></rect><rect width="36" height="1" x="609" y="720.5" rx="0.5" transform="rotate(45, 627, 721)" opacity="0.54"></rect><rect width="23" height="1" x="492.5" y="22.5" rx="0.5" transform="rotate(45, 504, 23)" opacity="0.65"></rect><rect width="26" height="1" x="608" y="333.5" rx="0.5" transform="rotate(45, 621, 334)" opacity="0.34"></rect><rect width="29" height="1" x="56.5" y="618.5" rx="0.5" transform="rotate(45, 71, 619)" opacity="0.81"></rect><rect width="30" height="1" x="345" y="467.5" rx="0.5" transform="rotate(45, 360, 468)" opacity="0.14"></rect><rect width="18" height="1" x="57" y="118.5" rx="0.5" transform="rotate(45, 66, 119)" opacity="0.99"></rect><rect width="29" height="1" x="118.5" y="614.5" rx="0.5" transform="rotate(45, 133, 615)" opacity="0.59"></rect><rect width="26" height="1" x="218" y="74.5" rx="0.5" transform="rotate(45, 231, 75)" opacity="0.08"></rect><rect width="34" height="1" x="244" y="675.5" rx="0.5" transform="rotate(45, 261, 676)" opacity="0.97"></rect><rect width="33" height="1" x="292.5" y="411.5" rx="0.5" transform="rotate(45, 309, 412)" opacity="0.94"></rect><rect width="28" height="1" x="387" y="322.5" rx="0.5" transform="rotate(45, 401, 323)" opacity="0.09"></rect><rect width="36" height="1" x="695" y="243.5" rx="0.5" transform="rotate(45, 713, 244)" opacity="0.46"></rect><rect width="30" height="1" x="169" y="115.5" rx="0.5" transform="rotate(45, 184, 116)" opacity="0.62"></rect><rect width="30" height="1" x="459" y="226.5" rx="0.5" transform="rotate(45, 474, 227)" opacity="0.88"></rect><rect width="25" height="1" x="40.5" y="681.5" rx="0.5" transform="rotate(45, 53, 682)" opacity="0.30"></rect><rect width="34" height="1" x="725" y="371.5" rx="0.5" transform="rotate(45, 742, 372)" opacity="0.57"></rect><rect width="37" height="1" x="674.5" y="656.5" rx="0.5" transform="rotate(45, 693, 657)" opacity="0.55"></rect><rect width="29" height="1" x="540.5" y="731.5" rx="0.5" transform="rotate(45, 555, 732)" opacity="0.35"></rect><rect width="36" height="1" x="666" y="116.5" rx="0.5" transform="rotate(45, 684, 117)" opacity="0.13"></rect><rect width="20" height="1" x="90" y="144.5" rx="0.5" transform="rotate(45, 100, 145)" opacity="0.14"></rect><rect width="31" height="1" x="303.5" y="94.5" rx="0.5" transform="rotate(45, 319, 95)" opacity="0.52"></rect><rect width="28" height="1" x="633" y="179.5" rx="0.5" transform="rotate(45, 647, 180)" opacity="0.23"></rect><rect width="37" height="1" x="609.5" y="624.5" rx="0.5" transform="rotate(45, 628, 625)" opacity="0.35"></rect><rect width="29" height="1" x="317.5" y="261.5" rx="0.5" transform="rotate(45, 332, 262)" opacity="0.88"></rect><rect width="29" height="1" x="195.5" y="528.5" rx="0.5" transform="rotate(45, 210, 529)" opacity="0.37"></rect><rect width="27" height="1" x="23.5" y="298.5" rx="0.5" transform="rotate(45, 37, 299)" opacity="0.27"></rect><rect width="33" height="1" x="184.5" y="259.5" rx="0.5" transform="rotate(45, 201, 260)" opacity="0.32"></rect><rect width="20" height="1" x="13" y="397.5" rx="0.5" transform="rotate(45, 23, 398)" opacity="0.66"></rect><rect width="16" height="1" x="340" y="15.5" rx="0.5" transform="rotate(45, 348, 16)" opacity="0.09"></rect><rect width="24" height="1" x="358" y="49.5" rx="0.5" transform="rotate(45, 370, 50)" opacity="0.47"></rect><rect width="26" height="1" x="291" y="746.5" rx="0.5" transform="rotate(45, 304, 747)" opacity="0.61"></rect><rect width="21" height="1" x="10.5" y="234.5" rx="0.5" transform="rotate(45, 21, 235)" opacity="0.41"></rect><rect width="20" height="1" x="73" y="564.5" rx="0.5" transform="rotate(45, 83, 565)" opacity="0.56"></rect><rect width="36" height="1" x="585" y="535.5" rx="0.5" transform="rotate(45, 603, 536)" opacity="0.41"></rect><rect width="23" height="1" x="764.5" y="216.5" rx="0.5" transform="rotate(45, 776, 217)" opacity="0.33"></rect><rect width="48" height="1" x="724" y="575.5" rx="0.5" transform="rotate(45, 748, 576)" opacity="0.85"></rect><rect width="30" height="1" x="464" y="556.5" rx="0.5" transform="rotate(45, 479, 557)" opacity="0.88"></rect><rect width="28" height="1" x="74" y="764.5" rx="0.5" transform="rotate(45, 88, 765)" opacity="0.42"></rect><rect width="14" height="1" x="555" y="13.5" rx="0.5" transform="rotate(45, 562, 14)" opacity="0.37"></rect><rect width="26" height="1" x="486" y="772.5" rx="0.5" transform="rotate(45, 499, 773)" opacity="0.86"></rect><rect width="33" height="1" x="539.5" y="199.5" rx="0.5" transform="rotate(45, 556, 200)" opacity="0.09"></rect><rect width="30" height="1" x="531" y="131.5" rx="0.5" transform="rotate(45, 546, 132)" opacity="0.71"></rect><rect width="30" height="1" x="316" y="189.5" rx="0.5" transform="rotate(45, 331, 190)" opacity="0.30"></rect><rect width="22" height="1" x="560" y="51.5" rx="0.5" transform="rotate(45, 571, 52)" opacity="0.46"></rect><rect width="20" height="1" x="602" y="778.5" rx="0.5" transform="rotate(45, 612, 779)" opacity="0.82"></rect><rect width="29" height="1" x="107.5" y="318.5" rx="0.5" transform="rotate(45, 122, 319)" opacity="0.67"></rect><rect width="29" height="1" x="288.5" y="567.5" rx="0.5" transform="rotate(45, 303, 568)" opacity="0.42"></rect><rect width="34" height="1" x="247" y="130.5" rx="0.5" transform="rotate(45, 264, 131)" opacity="0.24"></rect><rect width="26" height="1" x="734" y="57.5" rx="0.5" transform="rotate(45, 747, 58)" opacity="0.32"></rect><rect width="29" height="1" x="140.5" y="769.5" rx="0.5" transform="rotate(45, 155, 770)" opacity="0.64"></rect><rect width="30" height="1" x="66" y="368.5" rx="0.5" transform="rotate(45, 81, 369)" opacity="0.31"></rect><rect width="37" height="1" x="246.5" y="287.5" rx="0.5" transform="rotate(45, 265, 288)" opacity="0.79"></rect><rect width="29" height="1" x="252.5" y="516.5" rx="0.5" transform="rotate(45, 267, 517)" opacity="0.31"></rect><rect width="30" height="1" x="132" y="451.5" rx="0.5" transform="rotate(45, 147, 452)" opacity="0.97"></rect><rect width="38" height="1" x="742" y="475.5" rx="0.5" transform="rotate(45, 761, 476)" opacity="0.18"></rect><rect width="26" height="1" x="116" y="109.5" rx="0.5" transform="rotate(45, 129, 110)" opacity="0.42"></rect><rect width="26" height="1" x="191" y="466.5" rx="0.5" transform="rotate(45, 204, 467)" opacity="0.19"></rect><rect width="27" height="1" x="466.5" y="166.5" rx="0.5" transform="rotate(45, 480, 167)" opacity="0.48"></rect><rect width="23" height="1" x="191.5" y="594.5" rx="0.5" transform="rotate(45, 203, 595)" opacity="0.89"></rect><rect width="32" height="1" x="715" y="170.5" rx="0.5" transform="rotate(45, 731, 171)" opacity="0.96"></rect><rect width="30" height="1" x="134" y="185.5" rx="0.5" transform="rotate(45, 149, 186)" opacity="0.21"></rect><rect width="34" height="1" x="742" y="304.5" rx="0.5" transform="rotate(45, 759, 305)" opacity="0.65"></rect></g></svg>