<svg xmlns="http://www.w3.org/2000/svg" version="1.1" xmlns:xlink="http://www.w3.org/1999/xlink" xmlns:svgjs="http://svgjs.dev/svgjs" viewBox="0 0 2400 800" opacity="0.22"><defs><linearGradient x1="50%" y1="0%" x2="50%" y2="100%" id="sssurf-grad"><stop stop-color="#1db954ff" stop-opacity="1" offset="0%"></stop><stop stop-color="hsl(105, 69%, 60%)" stop-opacity="1" offset="100%"></stop></linearGradient></defs><g fill="url(#sssurf-grad)" transform="matrix(1,0,0,1,8.247314453125,-235.9899444580078)"><path d="M-10,10C47.63888888888889,12.291666666666666,153.47222222222223,28.916666666666664,266.6666666666667,21C379.86111111111114,13.083333333333334,422.2222222222223,-26.958333333333332,533.3333333333334,-28C644.4444444444445,-29.041666666666668,688.8888888888889,10.791666666666666,800,16C911.1111111111111,21.208333333333336,955.5555555555557,-8.833333333333334,1066.6666666666667,-3C1177.7777777777778,2.833333333333334,1222.2222222222224,46.083333333333336,1333.3333333333335,44C1444.4444444444446,41.916666666666664,1488.888888888889,-11.125,1600,-13C1711.111111111111,-14.875,1755.5555555555557,36.25,1866.6666666666667,35C1977.7777777777778,33.75,2022.2222222222224,-20.458333333333332,2133.3333333333335,-19C2244.4444444444443,-17.541666666666668,2292.3611111111113,-45.29166666666666,2400,42C2507.6388888888887,129.29166666666666,3254.1666666666665,221.25,2650,400C2045.8333333333335,578.75,156.25,795.8333333333334,-500,900" transform="matrix(1,0,0,1,0,150)" opacity="0.05"></path><path d="M-10,10C47.63888888888889,12.291666666666666,153.47222222222223,28.916666666666664,266.6666666666667,21C379.86111111111114,13.083333333333334,422.2222222222223,-26.958333333333332,533.3333333333334,-28C644.4444444444445,-29.041666666666668,688.8888888888889,10.791666666666666,800,16C911.1111111111111,21.208333333333336,955.5555555555557,-8.833333333333334,1066.6666666666667,-3C1177.7777777777778,2.833333333333334,1222.2222222222224,46.083333333333336,1333.3333333333335,44C1444.4444444444446,41.916666666666664,1488.888888888889,-11.125,1600,-13C1711.111111111111,-14.875,1755.5555555555557,36.25,1866.6666666666667,35C1977.7777777777778,33.75,2022.2222222222224,-20.458333333333332,2133.3333333333335,-19C2244.4444444444443,-17.541666666666668,2292.3611111111113,-45.29166666666666,2400,42C2507.6388888888887,129.29166666666666,3254.1666666666665,221.25,2650,400C2045.8333333333335,578.75,156.25,795.8333333333334,-500,900" transform="matrix(1,0,0,1,0,300)" opacity="0.21"></path><path d="M-10,10C47.63888888888889,12.291666666666666,153.47222222222223,28.916666666666664,266.6666666666667,21C379.86111111111114,13.083333333333334,422.2222222222223,-26.958333333333332,533.3333333333334,-28C644.4444444444445,-29.041666666666668,688.8888888888889,10.791666666666666,800,16C911.1111111111111,21.208333333333336,955.5555555555557,-8.833333333333334,1066.6666666666667,-3C1177.7777777777778,2.833333333333334,1222.2222222222224,46.083333333333336,1333.3333333333335,44C1444.4444444444446,41.916666666666664,1488.888888888889,-11.125,1600,-13C1711.111111111111,-14.875,1755.5555555555557,36.25,1866.6666666666667,35C1977.7777777777778,33.75,2022.2222222222224,-20.458333333333332,2133.3333333333335,-19C2244.4444444444443,-17.541666666666668,2292.3611111111113,-45.29166666666666,2400,42C2507.6388888888887,129.29166666666666,3254.1666666666665,221.25,2650,400C2045.8333333333335,578.75,156.25,795.8333333333334,-500,900" transform="matrix(1,0,0,1,0,450)" opacity="0.37"></path><path d="M-10,10C47.63888888888889,12.291666666666666,153.47222222222223,28.916666666666664,266.6666666666667,21C379.86111111111114,13.083333333333334,422.2222222222223,-26.958333333333332,533.3333333333334,-28C644.4444444444445,-29.041666666666668,688.8888888888889,10.791666666666666,800,16C911.1111111111111,21.208333333333336,955.5555555555557,-8.833333333333334,1066.6666666666667,-3C1177.7777777777778,2.833333333333334,1222.2222222222224,46.083333333333336,1333.3333333333335,44C1444.4444444444446,41.916666666666664,1488.888888888889,-11.125,1600,-13C1711.111111111111,-14.875,1755.5555555555557,36.25,1866.6666666666667,35C1977.7777777777778,33.75,2022.2222222222224,-20.458333333333332,2133.3333333333335,-19C2244.4444444444443,-17.541666666666668,2292.3611111111113,-45.29166666666666,2400,42C2507.6388888888887,129.29166666666666,3254.1666666666665,221.25,2650,400C2045.8333333333335,578.75,156.25,795.8333333333334,-500,900" transform="matrix(1,0,0,1,0,600)" opacity="0.53"></path><path d="M-10,10C47.63888888888889,12.291666666666666,153.47222222222223,28.916666666666664,266.6666666666667,21C379.86111111111114,13.083333333333334,422.2222222222223,-26.958333333333332,533.3333333333334,-28C644.4444444444445,-29.041666666666668,688.8888888888889,10.791666666666666,800,16C911.1111111111111,21.208333333333336,955.5555555555557,-8.833333333333334,1066.6666666666667,-3C1177.7777777777778,2.833333333333334,1222.2222222222224,46.083333333333336,1333.3333333333335,44C1444.4444444444446,41.916666666666664,1488.888888888889,-11.125,1600,-13C1711.111111111111,-14.875,1755.5555555555557,36.25,1866.6666666666667,35C1977.7777777777778,33.75,2022.2222222222224,-20.458333333333332,2133.3333333333335,-19C2244.4444444444443,-17.541666666666668,2292.3611111111113,-45.29166666666666,2400,42C2507.6388888888887,129.29166666666666,3254.1666666666665,221.25,2650,400C2045.8333333333335,578.75,156.25,795.8333333333334,-500,900" transform="matrix(1,0,0,1,0,750)" opacity="0.68"></path><path d="M-10,10C47.63888888888889,12.291666666666666,153.47222222222223,28.916666666666664,266.6666666666667,21C379.86111111111114,13.083333333333334,422.2222222222223,-26.958333333333332,533.3333333333334,-28C644.4444444444445,-29.041666666666668,688.8888888888889,10.791666666666666,800,16C911.1111111111111,21.208333333333336,955.5555555555557,-8.833333333333334,1066.6666666666667,-3C1177.7777777777778,2.833333333333334,1222.2222222222224,46.083333333333336,1333.3333333333335,44C1444.4444444444446,41.916666666666664,1488.888888888889,-11.125,1600,-13C1711.111111111111,-14.875,1755.5555555555557,36.25,1866.6666666666667,35C1977.7777777777778,33.75,2022.2222222222224,-20.458333333333332,2133.3333333333335,-19C2244.4444444444443,-17.541666666666668,2292.3611111111113,-45.29166666666666,2400,42C2507.6388888888887,129.29166666666666,3254.1666666666665,221.25,2650,400C2045.8333333333335,578.75,156.25,795.8333333333334,-500,900" transform="matrix(1,0,0,1,0,900)" opacity="0.84"></path><path d="M-10,10C47.63888888888889,12.291666666666666,153.47222222222223,28.916666666666664,266.6666666666667,21C379.86111111111114,13.083333333333334,422.2222222222223,-26.958333333333332,533.3333333333334,-28C644.4444444444445,-29.041666666666668,688.8888888888889,10.791666666666666,800,16C911.1111111111111,21.208333333333336,955.5555555555557,-8.833333333333334,1066.6666666666667,-3C1177.7777777777778,2.833333333333334,1222.2222222222224,46.083333333333336,1333.3333333333335,44C1444.4444444444446,41.916666666666664,1488.888888888889,-11.125,1600,-13C1711.111111111111,-14.875,1755.5555555555557,36.25,1866.6666666666667,35C1977.7777777777778,33.75,2022.2222222222224,-20.458333333333332,2133.3333333333335,-19C2244.4444444444443,-17.541666666666668,2292.3611111111113,-45.29166666666666,2400,42C2507.6388888888887,129.29166666666666,3254.1666666666665,221.25,2650,400C2045.8333333333335,578.75,156.25,795.8333333333334,-500,900" transform="matrix(1,0,0,1,0,1050)" opacity="1"></path></g></svg>